<svg xmlns="http://www.w3.org/2000/svg" width="780" height="145">
  <path fill="none" stroke="#000" stroke-width="4" d="M438.1 13.2v119.6"/>
  <path fill="#ff0" d="M52.8 99.2l.2-1 .1-1.9v-8h1.8V98l-.3 1.6-.5 1.2-.6 1.2-1 .9-1.2.6-1.3.5-1.3.1h-1.1l-1.6-.4-1.2-.6-.9-.6-1.2-1.1-.7-1-1.3-2.3h5.7l-2.5 1.7 1 1.2 1.3.9 1.4.3h1.6l1-.1.9-.5.7-.7.7-.8.3-1"/>
  <path fill="none" stroke="#ff0" stroke-miterlimit="10" stroke-width=".08256000000000001" d="M52.8 99.2l.2-1 .1-1.9v-8h1.8V98l-.3 1.6-.5 1.2-.6 1.2-1 .9-1.2.6-1.3.5-1.3.1h-1.1l-1.6-.4-1.2-.6-.9-.6-1.2-1.1-.7-1-1.3-2.3h5.7l-2.5 1.7 1 1.2 1.3.9 1.4.3h1.6l1-.1.9-.5.7-.7.7-.8.3-1"/>
  <path fill="#301a85" d="M51.8 100.9l-.7.7-1 .5-1 .2-1.5-.1-1.4-.3-1.3-1-1-1 2.5-1.8-8.7-4.7v10.4l3-2 1.8 2L44 105l1.6.6 2.3.3 1.7.2 1.6.5 1.5.8 1.2 1.3 1.1 1.3 1.2-1.3 1.2-1.3 1.5-.8 1.6-.5 1.7-.2 2.3-.3 1.6-.6 1.3-1 2-2.1 2.9 2V93.4L63.5 98l2.5 1.7-1 1.2-1.3.9-1.5.3h-1.5l-1-.1-1-.5-.7-.7-.6-.8-.4-1-.1-1-.1-1.8v-8l.8.4 1.5 1.2 2.5 2 1.6.7 1.4.4h1.2l1.7-1 2.3-1.9 1.3-.9 1.4-.5h1.8l1.7.6 1.8.9 1.2.9 1.5 1.1 1.5.8 1.4.2h.6l-1 3.2-1.4 3-1.6 2.8-2 2.6-2.2 2.4-2.5 2.2-2.7 1.8-3 1.6-3 1.2-3.1 1-3.3.5-3.3.2-3.2-.2-3.3-.6-3.1-.9-3-1.2-3-1.6-2.7-1.8-2.5-2.2-2.2-2.4-2-2.6-1.7-2.8-1.3-3-1-3.2h.6l1.4-.2 1.4-.8 1.6-1.1 1.2-1 1.8-.8 1.7-.6h1.7l1.4.5 1.4 1 2.3 1.7 1.6 1h1.3l1.4-.3 1.5-.7 2.6-2 1.4-1.2.9-.3V98l-.3 1-.3 1-.7.8"/>
  <path fill="none" stroke="#301a85" stroke-miterlimit="10" stroke-width=".08256000000000001" d="M51.8 100.9l-.7.7-1 .5-1 .2-1.5-.1-1.4-.3-1.3-1-1-1 2.5-1.8-8.7-4.7v10.4l3-2 1.8 2L44 105l1.6.6 2.3.3 1.7.2 1.6.5 1.5.8 1.2 1.3 1.1 1.3 1.2-1.3 1.2-1.3 1.5-.8 1.6-.5 1.7-.2 2.3-.3 1.6-.6 1.3-1 2-2.1 2.9 2V93.4L63.5 98l2.5 1.7-1 1.2-1.3.9-1.5.3h-1.5l-1-.1-1-.5-.7-.7-.6-.8-.4-1-.1-1-.1-1.8v-8l.8.4 1.5 1.2 2.5 2 1.6.7 1.4.4h1.2l1.7-1 2.3-1.9 1.3-.9 1.4-.5h1.8l1.7.6 1.8.9 1.2.9 1.5 1.1 1.5.8 1.4.2h.6l-1 3.2-1.4 3-1.6 2.8-2 2.6-2.2 2.4-2.5 2.2-2.7 1.8-3 1.6-3 1.2-3.1 1-3.3.5-3.3.2-3.2-.2-3.3-.6-3.1-.9-3-1.2-3-1.6-2.7-1.8-2.5-2.2-2.2-2.4-2-2.6-1.7-2.8-1.3-3-1-3.2h.6l1.4-.2 1.4-.8 1.6-1.1 1.2-1 1.8-.8 1.7-.6h1.7l1.4.5 1.4 1 2.3 1.7 1.6 1h1.3l1.4-.3 1.5-.7 2.6-2 1.4-1.2.9-.3V98l-.3 1-.3 1-.7.8"/>
  <path fill="#ff0" d="M47.8 105.8l-2.3-.3-1.6-.6-1.4-1-1.9-2.1-3 2 3-5.7 1.4 2.3.7 1 1.2 1.1.9.6 1.2.6 1.6.4h1l1.5.2 1 .3 1 .5 1 .5 1.8 1.2 1.9-1.2.9-.5 1.1-.5 1-.3 1.4-.2h1l1.7-.4 1.2-.6.9-.6 1.1-1.1.8-1 1.3-2.3 3 5.7-3-2-1.9 2L66 105l-1.6.6-2.3.3-1.7.2-1.6.5-1.5.8-1.2 1.3-1.2 1.3-1-1.3-1.3-1.3-1.5-.8-1.6-.5-1.7-.2"/>
  <path fill="none" stroke="#ff0" stroke-miterlimit="10" stroke-width=".08256000000000001" d="M47.8 105.8l-2.3-.3-1.6-.6-1.4-1-1.9-2.1-3 2 3-5.7 1.4 2.3.7 1 1.2 1.1.9.6 1.2.6 1.6.4h1l1.5.2 1 .3 1 .5 1 .5 1.8 1.2 1.9-1.2.9-.5 1.1-.5 1-.3 1.4-.2h1l1.7-.4 1.2-.6.9-.6 1.1-1.1.8-1 1.3-2.3 3 5.7-3-2-1.9 2L66 105l-1.6.6-2.3.3-1.7.2-1.6.5-1.5.8-1.2 1.3-1.2 1.3-1-1.3-1.3-1.3-1.5-.8-1.6-.5-1.7-.2"/>
  <path fill="#ff0" d="M37.7 103.8V93.4l3 4.7-3 5.7"/>
  <path fill="none" stroke="#ff0" stroke-miterlimit="10" stroke-width=".08256000000000001" d="M37.7 103.8V93.4l3 4.7-3 5.7"/>
  <path fill="#ff0" d="M40.7 98.1l-3-4.7 8.7 4.7h-5.7"/>
  <path fill="none" stroke="#ff0" stroke-miterlimit="10" stroke-width=".08256000000000001" d="M40.7 98.1l-3-4.7 8.7 4.7h-5.7"/>
  <path fill="#fff" d="M55 88.4H53l-.9.3-1.4 1.2-2.6 2-1.5.7-1.4.4H44l-1.6-1L40 90l-1.4-.9-1.4-.5h-1.7l-1.7.6-1.8.9-1.2.9-1.6 1.1-1.4.8-1.4.2h-.6l-.8-2.5v-6.3h1.1l1.7-.2 1.2-.7 2-1.4 1.7-1.1 2-.8 1.7-.3 1.8.4 1.4.7 1.2 1 2 1.4 1.1.6 1.3.2 1-.3 1.8-.7 2.2-1.7 1.6-1.3.8-.4.5-.2h3.5l.5.2.8.4 1.5 1.3 2.3 1.7 1.7.7 1 .3 1.3-.2 1.2-.6 2-1.4 1.2-1 1.4-.7 1.8-.4 1.7.3 2 .8 1.6 1.1 2 1.4 1.3.7 1.6.2h1.1v6.3l-.7 2.5h-.6L82 93l-1.5-.8-1.5-1.1-1.2-1-1.8-.8-1.7-.6h-1.8l-1.4.5-1.3 1-2.3 1.7-1.7 1h-1.2l-1.4-.3-1.6-.7-2.5-2-1.5-1.2-.8-.3h-1.9"/>
  <path fill="none" stroke="#fff" stroke-miterlimit="10" stroke-width=".08256000000000001" d="M55 88.4H53l-.9.3-1.4 1.2-2.6 2-1.5.7-1.4.4H44l-1.6-1L40 90l-1.4-.9-1.4-.5h-1.7l-1.7.6-1.8.9-1.2.9-1.6 1.1-1.4.8-1.4.2h-.6l-.8-2.5v-6.3h1.1l1.7-.2 1.2-.7 2-1.4 1.7-1.1 2-.8 1.7-.3 1.8.4 1.4.7 1.2 1 2 1.4 1.1.6 1.3.2 1-.3 1.8-.7 2.2-1.7 1.6-1.3.8-.4.5-.2h3.5l.5.2.8.4 1.5 1.3 2.3 1.7 1.7.7 1 .3 1.3-.2 1.2-.6 2-1.4 1.2-1 1.4-.7 1.8-.4 1.7.3 2 .8 1.6 1.1 2 1.4 1.3.7 1.6.2h1.1v6.3l-.7 2.5h-.6L82 93l-1.5-.8-1.5-1.1-1.2-1-1.8-.8-1.7-.6h-1.8l-1.4.5-1.3 1-2.3 1.7-1.7 1h-1.2l-1.4-.3-1.6-.7-2.5-2-1.5-1.2-.8-.3h-1.9"/>
  <path fill="#ff0" d="M72.2 93.4v10.4l-3-5.7 3-4.7"/>
  <path fill="none" stroke="#ff0" stroke-miterlimit="10" stroke-width=".08256000000000001" d="M72.2 93.4v10.4l-3-5.7 3-4.7"/>
  <path fill="#ff0" d="M22.1 23.6l2.4-1.2 1 2.1-2.6 1.4-3 1.7-1.1-2 3.3-2"/>
  <path fill="none" stroke="#ff0" stroke-miterlimit="10" stroke-width=".08256000000000001" d="M22.1 23.6l2.4-1.2 1 2.1-2.6 1.4-3 1.7-1.1-2 3.3-2"/>
  <path fill="#ff0" d="M22.1 23.6l-3.3 2-1.2-2 1.7-1 1.7-1 1.1 2"/>
  <path fill="none" stroke="#ff0" stroke-miterlimit="10" stroke-width=".08256000000000001" d="M22.1 23.6l-3.3 2-1.2-2 1.7-1 1.7-1 1.1 2"/>
  <path fill="#ff0" d="M23 25.9l2.4-1.4 2.6-1.2.6 1.8-2.4 1.1-2.4 1.3-.9-1.6"/>
  <path fill="none" stroke="#ff0" stroke-miterlimit="10" stroke-width=".08256000000000001" d="M23 25.9l2.4-1.4 2.6-1.2.6 1.8-2.4 1.1-2.4 1.3-.9-1.6"/>
  <path fill="#ff0" d="M20 27.6l3-1.7.8 1.6-1.1.6-.7.3-2-.8"/>
  <path fill="none" stroke="#ff0" stroke-miterlimit="10" stroke-width=".08256000000000001" d="M20 27.6l3-1.7.8 1.6-1.1.6-.7.3-2-.8"/>
  <path fill="#ff0" d="M25.4 24.5l-.9-2.1 1.5-.8 2.3-1 2.3-.9.8 2.2-3.4 1.4-2.6 1.2"/>
  <path fill="none" stroke="#ff0" stroke-miterlimit="10" stroke-width=".08256000000000001" d="M25.4 24.5l-.9-2.1 1.5-.8 2.3-1 2.3-.9.8 2.2-3.4 1.4-2.6 1.2"/>
  <path fill="#ff0" d="M82.9 37.7l-.8 1.5-1.7-.7-1.7-.8.7-1.6 2 .9 1.5.7"/>
  <path fill="none" stroke="#ff0" stroke-miterlimit="10" stroke-width=".08256000000000001" d="M82.9 37.7l-.8 1.5-1.7-.7-1.7-.8.7-1.6 2 .9 1.5.7"/>
  <path fill="#ff0" d="M79.4 36l-.7 1.7-1.9-.7-1.8-.6.6-1.8 3.8 1.5"/>
  <path fill="none" stroke="#ff0" stroke-miterlimit="10" stroke-width=".08256000000000001" d="M79.4 36l-.7 1.7-1.9-.7-1.8-.6.6-1.8 3.8 1.5"/>
  <path fill="#ff0" d="M78.7 37.7l1.7.8-1 2-1.6-.7-1.8-.7.8-2.1 2 .7"/>
  <path fill="none" stroke="#ff0" stroke-miterlimit="10" stroke-width=".08256000000000001" d="M78.7 37.7l1.7.8-1 2-1.6-.7-1.8-.7.8-2.1 2 .7"/>
  <path fill="#ff0" d="M80.4 38.5l1.7.7-1.1 2-1.7-.7 1.1-2"/>
  <path fill="none" stroke="#ff0" stroke-miterlimit="10" stroke-width=".08256000000000001" d="M80.4 38.5l1.7.7-1.1 2-1.7-.7 1.1-2"/>
  <path fill="#ff0" d="M82.9 37.7l-1.5-.7-2-1-3.8-1.4-3-1-3.2-.8-2.6-.5-2.6-.5-2.3-.3-2.2-.2-3.1-.2h-3.3l-3.1.2-2.2.2-2.3.3-2.6.5-2.6.5-3.1.8-3.1 1-3.9 1.5-1.9.9-1.5.7h-.5l-.2-.2V37l.2-.1 1.3-.7.8-.4 1.5-.6 3.9-1.5 3.3-1.1 3-.8 2.7-.6 2.5-.4 2.4-.4 2.2-.2 2.3-.1h5.1l2.3.1 2.1.2 2.5.4 2.5.4 2.7.6 3 .8 3.3 1 4 1.6 1.4.6.8.4 1.2.7.3.1v.5l-.2.2H83"/>
  <path fill="none" stroke="#ff0" stroke-miterlimit="10" stroke-width=".08256000000000001" d="M82.9 37.7l-1.5-.7-2-1-3.8-1.4-3-1-3.2-.8-2.6-.5-2.6-.5-2.3-.3-2.2-.2-3.1-.2h-3.3l-3.1.2-2.2.2-2.3.3-2.6.5-2.6.5-3.1.8-3.1 1-3.9 1.5-1.9.9-1.5.7h-.5l-.2-.2V37l.2-.1 1.3-.7.8-.4 1.5-.6 3.9-1.5 3.3-1.1 3-.8 2.7-.6 2.5-.4 2.4-.4 2.2-.2 2.3-.1h5.1l2.3.1 2.1.2 2.5.4 2.5.4 2.7.6 3 .8 3.3 1 4 1.6 1.4.6.8.4 1.2.7.3.1v.5l-.2.2H83"/>
  <path fill="#ff0" d="M72.2 93.4l-3 4.7h-5.7l8.7-4.7"/>
  <path fill="none" stroke="#ff0" stroke-miterlimit="10" stroke-width=".08256000000000001" d="M72.2 93.4l-3 4.7h-5.7l8.7-4.7"/>
  <path fill="#ff0" d="M63.5 98l5.7.1-1.3 2.3-.8 1-1.1 1.1-1 .6-1.1.6-1.6.4h-1l-1.4-.1-1.3-.5-1.2-.6-1-1-.6-1-.5-1.3L55 98v-9.6h1.9V98l.2 1 .4 1 .6.8.8.7.9.5 1 .2 1.5-.1 1.5-.3 1.3-1 1-1-2.5-1.8"/>
  <path fill="none" stroke="#ff0" stroke-miterlimit="10" stroke-width=".08256000000000001" d="M63.5 98l5.7.1-1.3 2.3-.8 1-1.1 1.1-1 .6-1.1.6-1.6.4h-1l-1.4-.1-1.3-.5-1.2-.6-1-1-.6-1-.5-1.3L55 98v-9.6h1.9V98l.2 1 .4 1 .6.8.8.7.9.5 1 .2 1.5-.1 1.5-.3 1.3-1 1-1-2.5-1.8"/>
  <path fill="#ff0" d="M55 98l.3 1.6.5 1.2.6 1.2 1 .9 1.2.6 1.3.5 1.3.1-1.4.2-1 .3-1.1.5-1 .5-1.8 1.2-1.8-1.2-1-.5-1-.5-1-.3-1.4-.2 1.3-.1 1.3-.5 1.2-.6 1-1 .6-1 .5-1.3.3-1.6"/>
  <path fill="none" stroke="#ff0" stroke-miterlimit="10" stroke-width=".08256000000000001" d="M55 98l.3 1.6.5 1.2.6 1.2 1 .9 1.2.6 1.3.5 1.3.1-1.4.2-1 .3-1.1.5-1 .5-1.8 1.2-1.8-1.2-1-.5-1-.5-1-.3-1.4-.2 1.3-.1 1.3-.5 1.2-.6 1-1 .6-1 .5-1.3.3-1.6"/>
  <path fill="#ff0" d="M79.8 35.2L76 33.7l.6-1.8 2 .8 2 .9-.7 1.6"/>
  <path fill="none" stroke="#ff0" stroke-miterlimit="10" stroke-width=".08256000000000001" d="M79.8 35.2L76 33.7l.6-1.8 2 .8 2 .9-.7 1.6"/>
  <path fill="#ff0" d="M79.8 35.2l.7-1.6 1.6.7-.8 1.5-1.5-.6"/>
  <path fill="none" stroke="#ff0" stroke-miterlimit="10" stroke-width=".08256000000000001" d="M79.8 35.2l.7-1.6 1.6.7-.8 1.5-1.5-.6"/>
  <path fill="#ff0" d="M80.5 33.6l-2-1 .7-2 2.2 1 1.7.9-1 1.8-1.6-.7"/>
  <path fill="none" stroke="#ff0" stroke-miterlimit="10" stroke-width=".08256000000000001" d="M80.5 33.6l-2-1 .7-2 2.2 1 1.7.9-1 1.8-1.6-.7"/>
  <path fill="#ff0" d="M78.4 32.7l-1.9-.8-3.1-1 .6-2.1 3.2 1 2 .9-.8 2"/>
  <path fill="none" stroke="#ff0" stroke-miterlimit="10" stroke-width=".08256000000000001" d="M78.4 32.7l-1.9-.8-3.1-1 .6-2.1 3.2 1 2 .9-.8 2"/>
  <path fill="#ff0" d="M79.2 30.7l-2-.8.6-1.7 2 .8 2.3 1-.7 1.6-2.2-1"/>
  <path fill="none" stroke="#ff0" stroke-miterlimit="10" stroke-width=".08256000000000001" d="M79.2 30.7l-2-.8.6-1.7 2 .8 2.3 1-.7 1.6-2.2-1"/>
  <path fill="#ff0" d="M82 30l-2.2-1 .7-1.9 2.3 1.1 2 1-.2.4-.3.6-.8-.4-.4.7-1-.5"/>
  <path fill="none" stroke="#ff0" stroke-miterlimit="10" stroke-width=".08256000000000001" d="M82 30l-2.2-1 .7-1.9 2.3 1.1 2 1-.2.4-.3.6-.8-.4-.4.7-1-.5"/>
  <path fill="#ff0" d="M63.5 15.8l.2-2.1 2.6.3 2.5.5-.4 2-5-.7"/>
  <path fill="none" stroke="#ff0" stroke-miterlimit="10" stroke-width=".08256000000000001" d="M63.5 15.8l.2-2.1 2.6.3 2.5.5-.4 2-5-.7"/>
  <path fill="#ff0" d="M63.5 15.8l4.9.8-.4 2.1-4-.6-3-.3.2-2.3 2.3.3"/>
  <path fill="none" stroke="#ff0" stroke-miterlimit="10" stroke-width=".08256000000000001" d="M63.5 15.8l4.9.8-.4 2.1-4-.6-3-.3.2-2.3 2.3.3"/>
  <path fill="#ff0" d="M61 17.8l3 .3-.3 2-2.9-.2-3-.2.1-2.1 3.1.2"/>
  <path fill="none" stroke="#ff0" stroke-miterlimit="10" stroke-width=".08256000000000001" d="M61 17.8l3 .3-.3 2-2.9-.2-3-.2.1-2.1 3.1.2"/>
  <path fill="#ff0" d="M60.8 19.9l2.9.3 2.3.3-.3 2.1-2.4-.3-2.7-.3.2-2.1"/>
  <path fill="none" stroke="#ff0" stroke-miterlimit="10" stroke-width=".08256000000000001" d="M60.8 19.9l2.9.3 2.3.3-.3 2.1-2.4-.3-2.7-.3.2-2.1"/>
  <path fill="#ff0" d="M65.7 22.6l.3-2 .8 2.2-1.1-.2"/>
  <path fill="none" stroke="#ff0" stroke-miterlimit="10" stroke-width=".08256000000000001" d="M65.7 22.6l.3-2 .8 2.2-1.1-.2"/>
  <path fill="#ff0" d="M65.7 22.6l1 .2.8 2.3-2.1-.4-2.4-.3.3-2.1 2.4.3"/>
  <path fill="none" stroke="#ff0" stroke-miterlimit="10" stroke-width=".08256000000000001" d="M65.7 22.6l1 .2.8 2.3-2.1-.4-2.4-.3.3-2.1 2.4.3"/>
  <path fill="#ff0" d="M61 17.8l-3.1-.2h-6l-3 .2-.3-2.3 2.9-.2h6.9l2.8.2-.2 2.3"/>
  <path fill="none" stroke="#ff0" stroke-miterlimit="10" stroke-width=".08256000000000001" d="M61 17.8l-3.1-.2h-6l-3 .2-.3-2.3 2.9-.2h6.9l2.8.2-.2 2.3"/>
  <path fill="#ff0" d="M57.9 17.6v2H52v-2h5.9"/>
  <path fill="none" stroke="#ff0" stroke-miterlimit="10" stroke-width=".08256000000000001" d="M57.9 17.6v2H52v-2h5.9"/>
  <path fill="#ff0" d="M57.8 19.7l3 .2-.2 2-3.7-.1-.3-.3-.3-.2-.4-.2v-.8h-2v.8l-.4.2-.2.2-.3.3-3.7.2-.2-2.1 3-.2 2.8-.1h3"/>
  <path fill="none" stroke="#ff0" stroke-miterlimit="10" stroke-width=".08256000000000001" d="M57.8 19.7l3 .2-.2 2-3.7-.1-.3-.3-.3-.2-.4-.2v-.8h-2v.8l-.4.2-.2.2-.3.3-3.7.2-.2-2.1 3-.2 2.8-.1h3"/>
  <path fill="#ff0" d="M64.2 31.8l2.6.5 2.6.5-.4 1.9-2.7-.6-2.4-.4.3-1.9"/>
  <path fill="none" stroke="#ff0" stroke-miterlimit="10" stroke-width=".08256000000000001" d="M64.2 31.8l2.6.5 2.6.5-.4 1.9-2.7-.6-2.4-.4.3-1.9"/>
  <path fill="#ff0" d="M64.2 31.8l-.3 2-2.3-.4-2.1-.2.2-2 2.2.3 2.3.3"/>
  <path fill="none" stroke="#ff0" stroke-miterlimit="10" stroke-width=".08256000000000001" d="M64.2 31.8l-.3 2-2.3-.4-2.1-.2.2-2 2.2.3 2.3.3"/>
  <path fill="#ff0" d="M63.9 33.7l2.4.4-.5 2.2-2.3-.4-2.2-.3.3-2.2 2.3.3"/>
  <path fill="none" stroke="#ff0" stroke-miterlimit="10" stroke-width=".08256000000000001" d="M63.9 33.7l2.4.4-.5 2.2-2.3-.4-2.2-.3.3-2.2 2.3.3"/>
  <path fill="#ff0" d="M66.3 34.1l2.7.6 3 .7-.7 2.2-2.9-.8-2.6-.5.5-2.2"/>
  <path fill="none" stroke="#ff0" stroke-miterlimit="10" stroke-width=".08256000000000001" d="M66.3 34.1l2.7.6 3 .7-.7 2.2-2.9-.8-2.6-.5.5-2.2"/>
  <path fill="#ff0" d="M69 34.7l.4-1.9 3.1.8 3.1 1-.6 1.8-3-1-3-.7"/>
  <path fill="none" stroke="#ff0" stroke-miterlimit="10" stroke-width=".08256000000000001" d="M69 34.7l.4-1.9 3.1.8 3.1 1-.6 1.8-3-1-3-.7"/>
  <path fill="#ff0" d="M59.5 33.2l2 .2-.2 2.2-2-.2-2-.1V33l2.2.1"/>
  <path fill="none" stroke="#ff0" stroke-miterlimit="10" stroke-width=".08256000000000001" d="M59.5 33.2l2 .2-.2 2.2-2-.2-2-.1V33l2.2.1"/>
  <path fill="#ff0" d="M68.4 36.8l3 .8 2.9.9-.6 1.6-2.7-.8-3-.8.4-1.7"/>
  <path fill="none" stroke="#ff0" stroke-miterlimit="10" stroke-width=".08256000000000001" d="M68.4 36.8l3 .8 2.9.9-.6 1.6-2.7-.8-3-.8.4-1.7"/>
  <path fill="#ff0" d="M73.7 40.1l.6-1.6 1.7.6 1.8.7-.6 1.6-3-1.1-.5-.2"/>
  <path fill="none" stroke="#ff0" stroke-miterlimit="10" stroke-width=".08256000000000001" d="M73.7 40.1l.6-1.6 1.7.6 1.8.7-.6 1.6-3-1.1-.5-.2"/>
  <path fill="#ff0" d="M68.4 36.8l-.3 1.7h-.2l-3.2-.7-1.4-.2.2-1.7 2.3.4 2.6.5"/>
  <path fill="none" stroke="#ff0" stroke-miterlimit="10" stroke-width=".08256000000000001" d="M68.4 36.8l-.3 1.7h-.2l-3.2-.7-1.4-.2.2-1.7 2.3.4 2.6.5"/>
  <path fill="#ff0" d="M63.5 35.9l-.2 1.7-1.9-.3-2.3-.3.2-1.6 2 .2 2.2.3"/>
  <path fill="none" stroke="#ff0" stroke-miterlimit="10" stroke-width=".08256000000000001" d="M63.5 35.9l-.2 1.7-1.9-.3-2.3-.3.2-1.6 2 .2 2.2.3"/>
  <path fill="#ff0" d="M34.3 23l3.5-1.1.5 2-3.6 1.1-2 .8-2-1.6 3.6-1.3"/>
  <path fill="none" stroke="#ff0" stroke-miterlimit="10" stroke-width=".08256000000000001" d="M34.3 23l3.5-1.1.5 2-3.6 1.1-2 .8-2-1.6 3.6-1.3"/>
  <path fill="#ff0" d="M34.7 25l3.6-1 2.9-.8.4 2-2.8.8-3.5 1-.6-2"/>
  <path fill="none" stroke="#ff0" stroke-miterlimit="10" stroke-width=".08256000000000001" d="M34.7 25l3.6-1 2.9-.8.4 2-2.8.8-3.5 1-.6-2"/>
  <path fill="#ff0" d="M41.6 25.3l-.4-2 1.9-.5-.7 2.3-.8.2"/>
  <path fill="none" stroke="#ff0" stroke-miterlimit="10" stroke-width=".08256000000000001" d="M41.6 25.3l-.4-2 1.9-.5-.7 2.3-.8.2"/>
  <path fill="#ff0" d="M41.2 23.2l-2.9.8-.5-2.1 3-.7 3-.7-.7 2.3-2 .4"/>
  <path fill="none" stroke="#ff0" stroke-miterlimit="10" stroke-width=".08256000000000001" d="M41.2 23.2l-2.9.8-.5-2.1 3-.7 3-.7-.7 2.3-2 .4"/>
  <path fill="#ff0" d="M38.8 26l2.8-.7.8-.2-.7 2.1-2.5.6-.4-1.8"/>
  <path fill="none" stroke="#ff0" stroke-miterlimit="10" stroke-width=".08256000000000001" d="M38.8 26l2.8-.7.8-.2-.7 2.1-2.5.6-.4-1.8"/>
  <path fill="#ff0" d="M35.3 27l3.5-1 .4 1.8-2.9.8-1.7-1.3.7-.3"/>
  <path fill="none" stroke="#ff0" stroke-miterlimit="10" stroke-width=".08256000000000001" d="M35.3 27l3.5-1 .4 1.8-2.9.8-1.7-1.3.7-.3"/>
  <path fill="#ff0" d="M34.7 25l.6 2-.7.3-1.9-1.5 2-.8"/>
  <path fill="none" stroke="#ff0" stroke-miterlimit="10" stroke-width=".08256000000000001" d="M34.7 25l.6 2-.7.3-1.9-1.5 2-.8"/>
  <path fill="#ff0" d="M30.8 24.2l2 1.6-1.3.5-.7-2"/>
  <path fill="none" stroke="#ff0" stroke-miterlimit="10" stroke-width=".08256000000000001" d="M30.8 24.2l2 1.6-1.3.5-.7-2"/>
  <path fill="#ff0" d="M29.7 42.7l-.8-1.5 1.6-.7 1.5-.7.7 1.6-3 1.3"/>
  <path fill="none" stroke="#ff0" stroke-miterlimit="10" stroke-width=".08256000000000001" d="M29.7 42.7l-.8-1.5 1.6-.7 1.5-.7.7 1.6-3 1.3"/>
  <path fill="#ff0" d="M30.5 40.5l-1.6.7-1.1-2 1.7-.7 1 2"/>
  <path fill="none" stroke="#ff0" stroke-miterlimit="10" stroke-width=".08256000000000001" d="M30.5 40.5l-1.6.7-1.1-2 1.7-.7 1 2"/>
  <path fill="#ff0" d="M32.7 41.4l-.7-1.6 1.9-.7 1.7-.6.5 1.6-.4.2-3 1.1"/>
  <path fill="none" stroke="#ff0" stroke-miterlimit="10" stroke-width=".08256000000000001" d="M32.7 41.4l-.7-1.6 1.9-.7 1.7-.6.5 1.6-.4.2-3 1.1"/>
  <path fill="#ff0" d="M23.8 27.5l2.4-1.3.8 2-2 1-.3-.1-.3-.2-.5-.2H23l-.3-.6 1-.6"/>
  <path fill="none" stroke="#ff0" stroke-miterlimit="10" stroke-width=".08256000000000001" d="M23.8 27.5l2.4-1.3.8 2-2 1-.3-.1-.3-.2-.5-.2H23l-.3-.6 1-.6"/>
  <path fill="#ff0" d="M22.7 28l.3.6h.9l.5.3.3.2.3.2.3.3.3.6.8-.4.4.7.3.6-.8.5.5.9 1 1.8.8 1.5-.8.4-3.2-6-.3-.3-.3-.2-.3-.1H23l-.4.1-.7-1.3.7-.3"/>
  <path fill="none" stroke="#ff0" stroke-miterlimit="10" stroke-width=".08256000000000001" d="M22.7 28l.3.6h.9l.5.3.3.2.3.2.3.3.3.6.8-.4.4.7.3.6-.8.5.5.9 1 1.8.8 1.5-.8.4-3.2-6-.3-.3-.3-.2-.3-.1H23l-.4.1-.7-1.3.7-.3"/>
  <path fill="#ff0" d="M27.1 31.1l-.3-.6 1-.5.7 1.6-1.7.9-.5-1 .8-.4"/>
  <path fill="none" stroke="#ff0" stroke-miterlimit="10" stroke-width=".08256000000000001" d="M27.1 31.1l-.3-.6 1-.5.7 1.6-1.7.9-.5-1 .8-.4"/>
  <path fill="#ff0" d="M26.8 32.5l1.7-.9 2.2-1 .8 2-2.1 1-1.6.7-1-1.8"/>
  <path fill="none" stroke="#ff0" stroke-miterlimit="10" stroke-width=".08256000000000001" d="M26.8 32.5l1.7-.9 2.2-1 .8 2-2.1 1-1.6.7-1-1.8"/>
  <path fill="#ff0" d="M28.5 31.6l-.7-1.6 2.3-1 2-.8.6 1.7-2 .8-2.2 1"/>
  <path fill="none" stroke="#ff0" stroke-miterlimit="10" stroke-width=".08256000000000001" d="M28.5 31.6l-.7-1.6 2.3-1 2-.8.6 1.7-2 .8-2.2 1"/>
  <path fill="#ff0" d="M27.8 30l-1 .5-.4-.7-.8.4-.3-.6-.3-.3 2-1 2.4-1.2.7 1.9-2.3 1"/>
  <path fill="none" stroke="#ff0" stroke-miterlimit="10" stroke-width=".08256000000000001" d="M27.8 30l-1 .5-.4-.7-.8.4-.3-.6-.3-.3 2-1 2.4-1.2.7 1.9-2.3 1"/>
  <path fill="#ff0" d="M53.3 31.1h3.3l3 .2-.1 2-2.1-.2h-4.9l-2.1.1-.2-2h3"/>
  <path fill="none" stroke="#ff0" stroke-miterlimit="10" stroke-width=".08256000000000001" d="M53.3 31.1h3.3l3 .2-.1 2-2.1-.2h-4.9l-2.1.1-.2-2h3"/>
  <path fill="#ff0" d="M50.2 31.3l.2 2-2.1.1-2.3.3-.3-1.9 2.3-.3 2.2-.2"/>
  <path fill="none" stroke="#ff0" stroke-miterlimit="10" stroke-width=".08256000000000001" d="M50.2 31.3l.2 2-2.1.1-2.3.3-.3-1.9 2.3-.3 2.2-.2"/>
  <path fill="#ff0" d="M50.4 33.2l2.1-.1.1 2.2h-2l-2 .3-.3-2.2 2-.2"/>
  <path fill="none" stroke="#ff0" stroke-miterlimit="10" stroke-width=".08256000000000001" d="M50.4 33.2l2.1-.1.1 2.2h-2l-2 .3-.3-2.2 2-.2"/>
  <path fill="#ff0" d="M52.5 33.1h4.9l-.1 2.2-2.4-.1h-2.3v-2.1"/>
  <path fill="none" stroke="#ff0" stroke-miterlimit="10" stroke-width=".08256000000000001" d="M52.5 33.1h4.9l-.1 2.2-2.4-.1h-2.3v-2.1"/>
  <path fill="#ff2c22" d="M55 30h-1.7v-7l.2-.3.1-.2.2-.3.3-.1.3-.1.2-.1H55.5l.3.2.2.1.2.3.2.2.1.3V30H55"/>
  <path fill="none" stroke="#ff2c22" stroke-miterlimit="10" stroke-width=".08256000000000001" d="M55 30h-1.7v-7l.2-.3.1-.2.2-.3.3-.1.3-.1.2-.1H55.5l.3.2.2.1.2.3.2.2.1.3V30H55"/>
  <path fill="#ff0" d="M55 21.9H54.3l-.3.2-.3.1-.2.3-.1.2-.1.3V30h-1v-5.4h-.9v-1.5h1v-.7l.3-.4.2-.3.3-.3.2-.2.4-.2v-.8h2v.8l.4.2.3.2.3.3.2.3.2.4.2.7h.9v1.5h-1v5.4h-.9V23l-.1-.3-.2-.2-.2-.3-.2-.1-.3-.1-.3-.1H55"/>
  <path fill="none" stroke="#ff0" stroke-miterlimit="10" stroke-width=".08256000000000001" d="M55 21.9H54.3l-.3.2-.3.1-.2.3-.1.2-.1.3V30h-1v-5.4h-.9v-1.5h1v-.7l.3-.4.2-.3.3-.3.2-.2.4-.2v-.8h2v.8l.4.2.3.2.3.3.2.3.2.4.2.7h.9v1.5h-1v5.4h-.9V23l-.1-.3-.2-.2-.2-.3-.2-.1-.3-.1-.3-.1H55"/>
  <path fill="#ff0" d="M37.4 33.6l3-.8.5 1.9-3 .7-3 1-.6-1.8 3-1"/>
  <path fill="none" stroke="#ff0" stroke-miterlimit="10" stroke-width=".08256000000000001" d="M37.4 33.6l3-.8.5 1.9-3 .7-3 1-.6-1.8 3-1"/>
  <path fill="#ff0" d="M34.3 34.6l.6 1.8-1.8.6-2 .7-.7-1.6 3.9-1.5"/>
  <path fill="none" stroke="#ff0" stroke-miterlimit="10" stroke-width=".08256000000000001" d="M34.3 34.6l.6 1.8-1.8.6-2 .7-.7-1.6 3.9-1.5"/>
  <path fill="#ff0" d="M34.9 36.4l3-1 .6 2.2-3 .9-1.6.6L33 37l1.8-.6"/>
  <path fill="none" stroke="#ff0" stroke-miterlimit="10" stroke-width=".08256000000000001" d="M34.9 36.4l3-1 .6 2.2-3 .9-1.6.6L33 37l1.8-.6"/>
  <path fill="#ff0" d="M37.9 35.4l3-.7 2.7-.6.5 2.2-2.7.5-2.9.8-.6-2.2"/>
  <path fill="none" stroke="#ff0" stroke-miterlimit="10" stroke-width=".08256000000000001" d="M37.9 35.4l3-.7 2.7-.6.5 2.2-2.7.5-2.9.8-.6-2.2"/>
  <path fill="#ff0" d="M41 34.7l-.5-1.9 2.6-.5 2.6-.5.3 2-2.4.3-2.7.6"/>
  <path fill="none" stroke="#ff0" stroke-miterlimit="10" stroke-width=".08256000000000001" d="M41 34.7l-.5-1.9 2.6-.5 2.6-.5.3 2-2.4.3-2.7.6"/>
  <path fill="#ff0" d="M31.1 37.7l2-.7.8 2.1-1.9.7-1.5.7-1-2 1.6-.8"/>
  <path fill="none" stroke="#ff0" stroke-miterlimit="10" stroke-width=".08256000000000001" d="M31.1 37.7l2-.7.8 2.1-1.9.7-1.5.7-1-2 1.6-.8"/>
  <path fill="#ff0" d="M31.1 37.7l-1.6.8-1.7.7-.8-1.5 1.5-.7 2-1 .6 1.7"/>
  <path fill="none" stroke="#ff0" stroke-miterlimit="10" stroke-width=".08256000000000001" d="M31.1 37.7l-1.6.8-1.7.7-.8-1.5 1.5-.7 2-1 .6 1.7"/>
  <path fill="#ff0" d="M52.4 30l-2.3.2-.2-1.9 2.5-.2v2"/>
  <path fill="none" stroke="#ff0" stroke-miterlimit="10" stroke-width=".08256000000000001" d="M52.4 30l-2.3.2-.2-1.9 2.5-.2v2"/>
  <path fill="#ff0" d="M49.9 28.3l.2 2-2.2.1-2.4.4-.3-2 2.3-.3 2.4-.2"/>
  <path fill="none" stroke="#ff0" stroke-miterlimit="10" stroke-width=".08256000000000001" d="M49.9 28.3l.2 2-2.2.1-2.4.4-.3-2 2.3-.3 2.4-.2"/>
  <path fill="#ff0" d="M52.4 28.1l-2.5.2-2.4.2-.3-2.2 2.5-.3 2.7-.2v2.3"/>
  <path fill="none" stroke="#ff0" stroke-miterlimit="10" stroke-width=".08256000000000001" d="M52.4 28.1l-2.5.2-2.4.2-.3-2.2 2.5-.3 2.7-.2v2.3"/>
  <path fill="#ff0" d="M49.7 26l-2.5.3-2.4.3-.3-1.9 2.4-.3 2.6-.3.2 2"/>
  <path fill="none" stroke="#ff0" stroke-miterlimit="10" stroke-width=".08256000000000001" d="M49.7 26l-2.5.3-2.4.3-.3-1.9 2.4-.3 2.6-.3.2 2"/>
  <path fill="#ff0" d="M47.2 26.3l.3 2.2-2.3.4-2.7.4-.5-2.2 2.8-.5 2.4-.3"/>
  <path fill="none" stroke="#ff0" stroke-miterlimit="10" stroke-width=".08256000000000001" d="M47.2 26.3l.3 2.2-2.3.4-2.7.4-.5-2.2 2.8-.5 2.4-.3"/>
  <path fill="#ff0" d="M49.5 24l-2.6.4-.4-2.1 2.8-.3 3.7-.2-.2.3-.2.4-.2.7h-.9v.7l-2 .2"/>
  <path fill="none" stroke="#ff0" stroke-miterlimit="10" stroke-width=".08256000000000001" d="M49.5 24l-2.6.4-.4-2.1 2.8-.3 3.7-.2-.2.3-.2.4-.2.7h-.9v.7l-2 .2"/>
  <path fill="#ff0" d="M46.5 22.3l.4 2-2.4.4-2.1.4.7-2.3 1-.2 2.4-.3"/>
  <path fill="none" stroke="#ff0" stroke-miterlimit="10" stroke-width=".08256000000000001" d="M46.5 22.3l.4 2-2.4.4-2.1.4.7-2.3 1-.2 2.4-.3"/>
  <path fill="#ff0" d="M42.4 25.1l2.1-.4.3 2-2.8.4-.3.1.7-2"/>
  <path fill="none" stroke="#ff0" stroke-miterlimit="10" stroke-width=".08256000000000001" d="M42.4 25.1l2.1-.4.3 2-2.8.4-.3.1.7-2"/>
  <path fill="#ff0" d="M44.2 22.6l-1.1.2.7-2.3.4 2.1"/>
  <path fill="none" stroke="#ff0" stroke-miterlimit="10" stroke-width=".08256000000000001" d="M44.2 22.6l-1.1.2.7-2.3.4 2.1"/>
  <path fill="#ff0" d="M38.5 37.6l3-.8.3 1.7-3 .8-2.7.8-.5-1.6 3-1"/>
  <path fill="none" stroke="#ff0" stroke-miterlimit="10" stroke-width=".08256000000000001" d="M38.5 37.6l3-.8.3 1.7-3 .8-2.7.8-.5-1.6 3-1"/>
  <path fill="#ff0" d="M41.4 36.8l2.7-.5 2.2-.4.3 1.7-1.4.2-3.2.7h-.2l-.4-1.7"/>
  <path fill="none" stroke="#ff0" stroke-miterlimit="10" stroke-width=".08256000000000001" d="M41.4 36.8l2.7-.5 2.2-.4.3 1.7-1.4.2-3.2.7h-.2l-.4-1.7"/>
  <path fill="#ff0" d="M44 36.3l-.4-2.2 2.4-.4 2.3-.3.3 2.2-2.3.3-2.2.4"/>
  <path fill="none" stroke="#ff0" stroke-miterlimit="10" stroke-width=".08256000000000001" d="M44 36.3l-.4-2.2 2.4-.4 2.3-.3.3 2.2-2.3.3-2.2.4"/>
  <path fill="#ff0" d="M36.3 28.6l3-.8 2.4-.6-.8 2.5-1.1.3-1.4.3-2.1-1.7"/>
  <path fill="none" stroke="#ff0" stroke-miterlimit="10" stroke-width=".08256000000000001" d="M36.3 28.6l3-.8 2.4-.6-.8 2.5-1.1.3-1.4.3-2.1-1.7"/>
  <path fill="#ff0" d="M27 28.2l-.8-2 2.4-1.1 2.2-.9.7 2-2.1 1-2.4 1"/>
  <path fill="none" stroke="#ff0" stroke-miterlimit="10" stroke-width=".08256000000000001" d="M27 28.2l-.8-2 2.4-1.1 2.2-.9.7 2-2.1 1-2.4 1"/>
  <path fill="#ff2c22" d="M26.5 36.9l-3.8-7.2.4-.1H23.7l.3.1.3.2.3.3 3.2 6-1.3.7"/>
  <path fill="none" stroke="#ff2c22" stroke-miterlimit="10" stroke-width=".08256000000000001" d="M26.5 36.9l-3.8-7.2.4-.1H23.7l.3.1.3.2.3.3 3.2 6-1.3.7"/>
  <path fill="#ff0" d="M37.3 32.6l-3.3 1-.6-1.7 3.1-1 2-.6 1.7 1.5-3 .8"/>
  <path fill="none" stroke="#ff0" stroke-miterlimit="10" stroke-width=".08256000000000001" d="M37.3 32.6l-3.3 1-.6-1.7 3.1-1 2-.6 1.7 1.5-3 .8"/>
  <path fill="#ff0" d="M33.4 32l.6 1.7-4 1.5-.6-1.6 2-1 2-.7"/>
  <path fill="none" stroke="#ff0" stroke-miterlimit="10" stroke-width=".08256000000000001" d="M33.4 32l.6 1.7-4 1.5-.6-1.6 2-1 2-.7"/>
  <path fill="#ff0" d="M40.2 31.8l-1.8-1.5 1.4-.3.4 1.8"/>
  <path fill="none" stroke="#ff0" stroke-miterlimit="10" stroke-width=".08256000000000001" d="M40.2 31.8l-1.8-1.5 1.4-.3.4 1.8"/>
  <path fill="#ff0" d="M36.5 30.9l-3.1 1-2 .8-.7-2 2-.8 3.2-1.1.6 2"/>
  <path fill="none" stroke="#ff0" stroke-miterlimit="10" stroke-width=".08256000000000001" d="M36.5 30.9l-3.1 1-2 .8-.7-2 2-.8 3.2-1.1.6 2"/>
  <path fill="#ff0" d="M30.8 24.2l-2.2.9-.6-1.8 3.4-1.4-.6 2.3"/>
  <path fill="none" stroke="#ff0" stroke-miterlimit="10" stroke-width=".08256000000000001" d="M30.8 24.2l-2.2.9-.6-1.8 3.4-1.4-.6 2.3"/>
  <path fill="#ff0" d="M55 79.6h-1.8v-1.8l1.7.3v1.5"/>
  <path fill="none" stroke="#ff0" stroke-miterlimit="10" stroke-width=".08256000000000001" d="M55 79.6h-1.8v-1.8l1.7.3v1.5"/>
  <path fill="#301a85" d="M53.2 77.8v1.8l-.5.2-.8.4-1.6 1.3-2.2 1.7-1.7.7-1 .3L44 84l-1.1-.6-2-1.4-1.2-1-1.4-.7-1.8-.4-1.7.3-2 .8-1.7 1.1-2 1.4-1.2.7-1.7.2h-1V58.8h59.5v25.6h-1l-1.7-.2-1.2-.7-2-1.4L77 81l-2-.8-1.7-.3-1.8.4-1.4.7-1.3 1-1.9 1.4-1.2.6-1.3.2-1-.3-1.7-.7-2.3-1.7-1.5-1.3-.8-.4-.5-.2v-1.8l1.8-.3v.6h1.3v-.9l3.4-.6v.6h1.5v-.8l2.5-.5v-2.8h-2.5v-.8h-1.5v.8h-3.4v-.8h-1.3v.8h-1.8v-1.2l.6-.2 1-.8.7-1 .5-1 .2-1.3-.2-1.2-.5-1.2-.7-1-1-.7-1.1-.5-1.3-.1-1.2.1-1.1.5-1 .8-.7 1-.5 1-.2 1.3.2 1.2.5 1.2.7 1 1 .7.6.2v1.2h-1.8v-.8h-1.3v.8h-3.4v-.8h-1.5v.8h-2.5v2.8l2.5.5v.8h1.5v-.6l3.4.6v.9h1.3v-.6l1.8.3"/>
  <path fill="none" stroke="#301a85" stroke-miterlimit="10" stroke-width=".08256000000000001" d="M53.2 77.8v1.8l-.5.2-.8.4-1.6 1.3-2.2 1.7-1.7.7-1 .3L44 84l-1.1-.6-2-1.4-1.2-1-1.4-.7-1.8-.4-1.7.3-2 .8-1.7 1.1-2 1.4-1.2.7-1.7.2h-1V58.8h59.5v25.6h-1l-1.7-.2-1.2-.7-2-1.4L77 81l-2-.8-1.7-.3-1.8.4-1.4.7-1.3 1-1.9 1.4-1.2.6-1.3.2-1-.3-1.7-.7-2.3-1.7-1.5-1.3-.8-.4-.5-.2v-1.8l1.8-.3v.6h1.3v-.9l3.4-.6v.6h1.5v-.8l2.5-.5v-2.8h-2.5v-.8h-1.5v.8h-3.4v-.8h-1.3v.8h-1.8v-1.2l.6-.2 1-.8.7-1 .5-1 .2-1.3-.2-1.2-.5-1.2-.7-1-1-.7-1.1-.5-1.3-.1-1.2.1-1.1.5-1 .8-.7 1-.5 1-.2 1.3.2 1.2.5 1.2.7 1 1 .7.6.2v1.2h-1.8v-.8h-1.3v.8h-3.4v-.8h-1.5v.8h-2.5v2.8l2.5.5v.8h1.5v-.6l3.4.6v.9h1.3v-.6l1.8.3"/>
  <path fill="#ff0" d="M50 77.2l-3.3-.6v-3.5h3.4v4.1"/>
  <path fill="none" stroke="#ff0" stroke-miterlimit="10" stroke-width=".08256000000000001" d="M50 77.2l-3.3-.6v-3.5h3.4v4.1"/>
  <path fill="#ff0" d="M50 77.2V72.3h1.4v5.8h-1.3v-.9"/>
  <path fill="none" stroke="#ff0" stroke-miterlimit="10" stroke-width=".08256000000000001" d="M50 77.2V72.3h1.4v5.8h-1.3v-.9"/>
  <path fill="#ff0" d="M46.7 73v4.2h-1.5V72.3h1.5v.8"/>
  <path fill="none" stroke="#ff0" stroke-miterlimit="10" stroke-width=".08256000000000001" d="M46.7 73v4.2h-1.5V72.3h1.5v.8"/>
  <path fill="#ff0" d="M53.2 73v-4.4h1.7v4.5h-1.7"/>
  <path fill="none" stroke="#ff0" stroke-miterlimit="10" stroke-width=".08256000000000001" d="M53.2 73v-4.4h1.7v4.5h-1.7"/>
  <path fill="#ff0" d="M53.2 73h5.3v4.5l-1.8.3-1.8.3-1.7-.3-1.8-.3V73h1.8"/>
  <path fill="none" stroke="#ff0" stroke-miterlimit="10" stroke-width=".08256000000000001" d="M53.2 73h5.3v4.5l-1.8.3-1.8.3-1.7-.3-1.8-.3V73h1.8"/>
  <path fill="#ff0" d="M45.2 73v3.4l-2.5-.5v-2.8h2.5"/>
  <path fill="none" stroke="#ff0" stroke-miterlimit="10" stroke-width=".08256000000000001" d="M45.2 73v3.4l-2.5-.5v-2.8h2.5"/>
  <path fill="#ff0" d="M28.6 35.8l-.8-1.5 1.6-.7.7 1.6-1.5.6"/>
  <path fill="none" stroke="#ff0" stroke-miterlimit="10" stroke-width=".08256000000000001" d="M28.6 35.8l-.8-1.5 1.6-.7.7 1.6-1.5.6"/>
  <path fill="#ff0" d="M43.8 20.5L42 18.7l4-.6.3 2-2.4.4"/>
  <path fill="none" stroke="#ff0" stroke-miterlimit="10" stroke-width=".08256000000000001" d="M43.8 20.5L42 18.7l4-.6.3 2-2.4.4"/>
  <path fill="#ff0" d="M46.2 20.2l-.3-2 3-.4 3-.2.1 2-3 .3-2.8.3"/>
  <path fill="none" stroke="#ff0" stroke-miterlimit="10" stroke-width=".08256000000000001" d="M46.2 20.2l-.3-2 3-.4 3-.2.1 2-3 .3-2.8.3"/>
  <path fill="#ff0" d="M45.9 18.1l-4 .6-.4-2.1 4.9-.8 2.2-.3.3 2.3-3 .3"/>
  <path fill="none" stroke="#ff0" stroke-miterlimit="10" stroke-width=".08256000000000001" d="M45.9 18.1l-4 .6-.4-2.1 4.9-.8 2.2-.3.3 2.3-3 .3"/>
  <path fill="#ff0" d="M32.7 29.9l-.6-1.7 2.5-1 1.7 1.4-.4.2-3.2 1"/>
  <path fill="none" stroke="#ff0" stroke-miterlimit="10" stroke-width=".08256000000000001" d="M32.7 29.9l-.6-1.7 2.5-1 1.7 1.4-.4.2-3.2 1"/>
  <path fill="#fff" d="M84.7 58.8H25.1V42.7h59.6v16.1m-29-15h-1.4v2h-1.8V47h1.8v2.8h-3v-1.6h-1.5v1.6h-1.3v1.5h1.3V53h1.4v-1.7h3v3h-1.6v1.2h1.7v1.7h1.3v-1.7h1.7v-1.2h-1.7v-3h3V53h1.5v-1.7h1.3v-1.5h-1.3v-1.6h-1.5v1.6h-3V47h1.8V46h-1.8v-2"/>
  <path fill="none" stroke="#fff" stroke-miterlimit="10" stroke-width=".08256000000000001" d="M84.7 58.8H25.1V42.7h59.6v16.1m-29-15h-1.4v2h-1.8V47h1.8v2.8h-3v-1.6h-1.5v1.6h-1.3v1.5h1.3V53h1.4v-1.7h3v3h-1.6v1.2h1.7v1.7h1.3v-1.7h1.7v-1.2h-1.7v-3h3V53h1.5v-1.7h1.3v-1.5h-1.3v-1.6h-1.5v1.6h-3V47h1.8V46h-1.8v-2"/>
  <path fill="#ff0" d="M59.8 73h3.4v3.6l-3.4.6v-4.1"/>
  <path fill="none" stroke="#ff0" stroke-miterlimit="10" stroke-width=".08256000000000001" d="M59.8 73h3.4v3.6l-3.4.6v-4.1"/>
  <path fill="#ff0" d="M57.5 30v-1.9l2.5.2-.2 2-2.3-.2"/>
  <path fill="none" stroke="#ff0" stroke-miterlimit="10" stroke-width=".08256000000000001" d="M57.5 30v-1.9l2.5.2-.2 2-2.3-.2"/>
  <path fill="#ff0" d="M57.5 28.1v-2.3l2.7.2 2.5.3-.3 2.2-2.4-.2-2.5-.2"/>
  <path fill="none" stroke="#ff0" stroke-miterlimit="10" stroke-width=".08256000000000001" d="M57.5 28.1v-2.3l2.7.2 2.5.3-.3 2.2-2.4-.2-2.5-.2"/>
  <path fill="#ff0" d="M57.5 25.8v-1.1h.9v-.8l2 .2-.2 2-2.7-.3"/>
  <path fill="none" stroke="#ff0" stroke-miterlimit="10" stroke-width=".08256000000000001" d="M57.5 25.8v-1.1h.9v-.8l2 .2-.2 2-2.7-.3"/>
  <path fill="#ff0" d="M45.2 28.9l.3 1.9-2.5.4-2.8.6.7-2 1.6-.5 2.7-.4"/>
  <path fill="none" stroke="#ff0" stroke-miterlimit="10" stroke-width=".08256000000000001" d="M45.2 28.9l.3 1.9-2.5.4-2.8.6.7-2 1.6-.5 2.7-.4"/>
  <path fill="#ff0" d="M34.6 27.3l-2.5.9-2 .8-.7-1.9 2-.8 1.3-.5 1.9 1.5"/>
  <path fill="none" stroke="#ff0" stroke-miterlimit="10" stroke-width=".08256000000000001" d="M34.6 27.3l-2.5.9-2 .8-.7-1.9 2-.8 1.3-.5 1.9 1.5"/>
  <path fill="#ff0" d="M35.9 28.8l.4-.2 2.1 1.7-1.9.6-.6-2.1"/>
  <path fill="none" stroke="#ff0" stroke-miterlimit="10" stroke-width=".08256000000000001" d="M35.9 28.8l.4-.2 2.1 1.7-1.9.6-.6-2.1"/>
  <path fill="#ff0" d="M40.9 29.7l-.7 2.1-.4-1.8 1.1-.3"/>
  <path fill="none" stroke="#ff0" stroke-miterlimit="10" stroke-width=".08256000000000001" d="M40.9 29.7l-.7 2.1-.4-1.8 1.1-.3"/>
  <path fill="#ff0" d="M65.4 24.7l2.1.4.7 2.1h-.4l-2.8-.6.4-1.9"/>
  <path fill="none" stroke="#ff0" stroke-miterlimit="10" stroke-width=".08256000000000001" d="M65.4 24.7l2.1.4.7 2.1h-.4l-2.8-.6.4-1.9"/>
  <path fill="#ff0" d="M67.8 27.1l.4.1.8 2.5-1.7-.4.5-2.2"/>
  <path fill="none" stroke="#ff0" stroke-miterlimit="10" stroke-width=".08256000000000001" d="M67.8 27.1l.4.1.8 2.5-1.7-.4.5-2.2"/>
  <path fill="#ff0" d="M68.2 27.2l-.7-2h.7l2.8.8-.4 1.8-2.4-.6"/>
  <path fill="none" stroke="#ff0" stroke-miterlimit="10" stroke-width=".08256000000000001" d="M68.2 27.2l-.7-2h.7l2.8.8-.4 1.8-2.4-.6"/>
  <path fill="#ff0" d="M65.4 24.7l-.4 2-2.3-.4-2.5-.3.2-2 2.6.4 2.4.3"/>
  <path fill="none" stroke="#ff0" stroke-miterlimit="10" stroke-width=".08256000000000001" d="M65.4 24.7l-.4 2-2.3-.4-2.5-.3.2-2 2.6.4 2.4.3"/>
  <path fill="#ff0" d="M65 26.6l2.8.5-.5 2.2-2.6-.4-2.3-.4.3-2.2 2.3.3"/>
  <path fill="none" stroke="#ff0" stroke-miterlimit="10" stroke-width=".08256000000000001" d="M65 26.6l2.8.5-.5 2.2-2.6-.4-2.3-.4.3-2.2 2.3.3"/>
  <path fill="#ff0" d="M62.4 28.5l2.3.4-.3 1.9-2.5-.4-2.1-.2.2-1.9 2.4.2"/>
  <path fill="none" stroke="#ff0" stroke-miterlimit="10" stroke-width=".08256000000000001" d="M62.4 28.5l2.3.4-.3 1.9-2.5-.4-2.1-.2.2-1.9 2.4.2"/>
  <path fill="#ff0" d="M64.4 30.8l.3-2 2.6.5 1.7.4.6 2.1-2.7-.6-2.5-.4"/>
  <path fill="none" stroke="#ff0" stroke-miterlimit="10" stroke-width=".08256000000000001" d="M64.4 30.8l.3-2 2.6.5 1.7.4.6 2.1-2.7-.6-2.5-.4"/>
  <path fill="#ff0" d="M44.2 22.6l-.4-2 2.4-.4 2.9-.3.2 2-2.8.4-2.3.3"/>
  <path fill="none" stroke="#ff0" stroke-miterlimit="10" stroke-width=".08256000000000001" d="M44.2 22.6l-.4-2 2.4-.4 2.9-.3.2 2-2.8.4-2.3.3"/>
  <path fill="#ff2c22" d="M45.2 37.8l1.4-.2 1.8-.3 2.4-.3H59l2.3.3 1.9.3 1.4.2 3.2.7h.2l3 .8 2.6.8.4.2 3.1 1.1 3 1.3H29.7l3-1.3 3-1.1.4-.2 2.8-.8 3-.8h.1l3.2-.7"/>
  <path fill="none" stroke="#ff2c22" stroke-miterlimit="10" stroke-width=".08256000000000001" d="M45.2 37.8l1.4-.2 1.8-.3 2.4-.3H59l2.3.3 1.9.3 1.4.2 3.2.7h.2l3 .8 2.6.8.4.2 3.1 1.1 3 1.3H29.7l3-1.3 3-1.1.4-.2 2.8-.8 3-.8h.1l3.2-.7"/>
  <path fill="#ff0" d="M55 37h-4.2l-.2-1.6 2-.1 2.3-.1h2.4l2 .2L59 37H55"/>
  <path fill="none" stroke="#ff0" stroke-miterlimit="10" stroke-width=".08256000000000001" d="M55 37h-4.2l-.2-1.6 2-.1 2.3-.1h2.4l2 .2L59 37H55"/>
  <path fill="#ff0" d="M50.8 37l-2.4.3-1.8.3-.3-1.7 2.3-.3 2-.2.2 1.6"/>
  <path fill="none" stroke="#ff0" stroke-miterlimit="10" stroke-width=".08256000000000001" d="M50.8 37l-2.4.3-1.8.3-.3-1.7 2.3-.3 2-.2.2 1.6"/>
  <path fill="#ff0" d="M80.2 42.7l-3-1.3.6-1.6 1.5.7 1.7.7-.8 1.5"/>
  <path fill="none" stroke="#ff0" stroke-miterlimit="10" stroke-width=".08256000000000001" d="M80.2 42.7l-3-1.3.6-1.6 1.5.7 1.7.7-.8 1.5"/>
  <path fill="#ff0" d="M29.8 17.7l.8 2-2.3 1-2.3 1-.9-2 2.4-1.1 2.3-1"/>
  <path fill="none" stroke="#ff0" stroke-miterlimit="10" stroke-width=".08256000000000001" d="M29.8 17.7l.8 2-2.3 1-2.3 1-.9-2 2.4-1.1 2.3-1"/>
  <path fill="#301a85" d="M53.2 68.6v1.8l-.6-.5-.5-.6-.4-.8V66.8l.4-.8.5-.7.7-.6.8-.3.8-.1.9.1.8.3.7.6.5.7.3.8.1.8v.9l-.4.8-.5.6-.6.5v-1.8h-3.5"/>
  <path fill="none" stroke="#301a85" stroke-miterlimit="10" stroke-width=".08256000000000001" d="M53.2 68.6v1.8l-.6-.5-.5-.6-.4-.8V66.8l.4-.8.5-.7.7-.6.8-.3.8-.1.9.1.8.3.7.6.5.7.3.8.1.8v.9l-.4.8-.5.6-.6.5v-1.8h-3.5"/>
  <path fill="#ff0" d="M55 64.3l-1 .1-.7.3-.7.6-.5.7-.4.8V68.5l.4.8.5.6.6.5v1.5l-.6-.2-1-.8-.7-1-.5-1-.2-1.3.2-1.2.5-1.2.7-1 1-.7 1.1-.5L55 63l1.3.1 1.1.5 1 .8.7 1 .5 1 .2 1.3-.2 1.2L59 70l-.7 1-1 .7-.6.2v-1.5l.6-.5.5-.6.3-.8.1-.9v-.8l-.4-.8-.5-.7-.7-.6-.8-.3-.9-.1"/>
  <path fill="none" stroke="#ff0" stroke-miterlimit="10" stroke-width=".08256000000000001" d="M55 64.3l-1 .1-.7.3-.7.6-.5.7-.4.8V68.5l.4.8.5.6.6.5v1.5l-.6-.2-1-.8-.7-1-.5-1-.2-1.3.2-1.2.5-1.2.7-1 1-.7 1.1-.5L55 63l1.3.1 1.1.5 1 .8.7 1 .5 1 .2 1.3-.2 1.2L59 70l-.7 1-1 .7-.6.2v-1.5l.6-.5.5-.6.3-.8.1-.9v-.8l-.4-.8-.5-.7-.7-.6-.8-.3-.9-.1"/>
  <path fill="#ff0" d="M55 68.6h1.7v4.5H55v-4.5"/>
  <path fill="none" stroke="#ff0" stroke-miterlimit="10" stroke-width=".08256000000000001" d="M55 68.6h1.7v4.5H55v-4.5"/>
  <path fill="#ff0" d="M82 30l1 .5-.3.6.9.5-.5.9-1.7-.9.7-1.6"/>
  <path fill="none" stroke="#ff0" stroke-miterlimit="10" stroke-width=".08256000000000001" d="M82 30l1 .5-.3.6.9.5-.5.9-1.7-.9.7-1.6"/>
  <path fill="#ff0" d="M82.7 31.1l.4-.6.4-.7.8.4.3-.6.3-.3.3-.2.3-.2.5-.2h.9l.3-.6.6.3-.6 1.3-.4-.1H86.2l-.3.1-.4.2-.2.3-3.2 6-.8-.4.8-1.5 1-1.8.5-1-.9-.4"/>
  <path fill="none" stroke="#ff0" stroke-miterlimit="10" stroke-width=".08256000000000001" d="M82.7 31.1l.4-.6.4-.7.8.4.3-.6.3-.3.3-.2.3-.2.5-.2h.9l.3-.6.6.3-.6 1.3-.4-.1H86.2l-.3.1-.4.2-.2.3-3.2 6-.8-.4.8-1.5 1-1.8.5-1-.9-.4"/>
  <path fill="#ff0" d="M87.8 23.6l1-2 1.8 1 1.7 1-1.2 2-3.3-2"/>
  <path fill="none" stroke="#ff0" stroke-miterlimit="10" stroke-width=".08256000000000001" d="M87.8 23.6l1-2 1.8 1 1.7 1-1.2 2-3.3-2"/>
  <path fill="#ff0" d="M87.8 23.6l3.3 2-1.2 2-3-1.7-2.5-1.4 1-2.1 2.4 1.2"/>
  <path fill="none" stroke="#ff0" stroke-miterlimit="10" stroke-width=".08256000000000001" d="M87.8 23.6l3.3 2-1.2 2-3-1.7-2.5-1.4 1-2.1 2.4 1.2"/>
  <path fill="#ff0" d="M84.4 24.5L87 26l-.8 1.6-2.4-1.3-2.5-1.1.7-1.8 2.5 1.2"/>
  <path fill="none" stroke="#ff0" stroke-miterlimit="10" stroke-width=".08256000000000001" d="M84.4 24.5L87 26l-.8 1.6-2.4-1.3-2.5-1.1.7-1.8 2.5 1.2"/>
  <path fill="#ff0" d="M84.4 24.5L82 23.3 78.5 22l.8-2.2 2.3 1 2.2 1 1.6.7-1 2.1"/>
  <path fill="none" stroke="#ff0" stroke-miterlimit="10" stroke-width=".08256000000000001" d="M84.4 24.5L82 23.3 78.5 22l.8-2.2 2.3 1 2.2 1 1.6.7-1 2.1"/>
  <path fill="#ff0" d="M83.7 26.2l2.4 1.3 1 .6-.2.5H86l-.5.3-.3.2-.3.2-2-1 .8-2"/>
  <path fill="none" stroke="#ff0" stroke-miterlimit="10" stroke-width=".08256000000000001" d="M83.7 26.2l2.4 1.3 1 .6-.2.5H86l-.5.3-.3.2-.3.2-2-1 .8-2"/>
  <path fill="#ff0" d="M83.7 26.2l-.9 2-2.3-1-2-1 .6-2 2.1.9 2.5 1.1"/>
  <path fill="none" stroke="#ff0" stroke-miterlimit="10" stroke-width=".08256000000000001" d="M83.7 26.2l-.9 2-2.3-1-2-1 .6-2 2.1.9 2.5 1.1"/>
  <path fill="#ff0" d="M87.2 28l-1.1-.5.8-1.6 3 1.7-2 .8-.7-.3"/>
  <path fill="none" stroke="#ff0" stroke-miterlimit="10" stroke-width=".08256000000000001" d="M87.2 28l-1.1-.5.8-1.6 3 1.7-2 .8-.7-.3"/>
  <path fill="#ff2c22" d="M87.2 29.7l-3.9 7.2-1.2-.7 3.2-6 .2-.3.4-.2.3-.1H86.8l.4.1"/>
  <path fill="none" stroke="#ff2c22" stroke-miterlimit="10" stroke-width=".08256000000000001" d="M87.2 29.7l-3.9 7.2-1.2-.7 3.2-6 .2-.3.4-.2.3-.1H86.8l.4.1"/>
  <path fill="#ff0" d="M76.5 32l-.6 1.7-3.3-1.1-3-.8 1.9-1.5 1.9.6 3.1 1"/>
  <path fill="none" stroke="#ff0" stroke-miterlimit="10" stroke-width=".08256000000000001" d="M76.5 32l-.6 1.7-3.3-1.1-3-.8 1.9-1.5 1.9.6 3.1 1"/>
  <path fill="#ff0" d="M71.5 30.3l-1.9 1.5.5-1.8 1.4.3"/>
  <path fill="none" stroke="#ff0" stroke-miterlimit="10" stroke-width=".08256000000000001" d="M71.5 30.3l-1.9 1.5.5-1.8 1.4.3"/>
  <path fill="#ff0" d="M63 24.4l-2.6-.3-2-.2v-.7h-1v-.7l-.3-.4-.2-.3 3.7.2 2.7.3-.3 2"/>
  <path fill="none" stroke="#ff0" stroke-miterlimit="10" stroke-width=".08256000000000001" d="M63 24.4l-2.6-.3-2-.2v-.7h-1v-.7l-.3-.4-.2-.3 3.7.2 2.7.3-.3 2"/>
  <path fill="#ff0" d="M58.5 78v-5.7h1.3v5.8h-1.3"/>
  <path fill="none" stroke="#ff0" stroke-miterlimit="10" stroke-width=".08256000000000001" d="M58.5 78v-5.7h1.3v5.8h-1.3"/>
  <path fill="#ff0" d="M81.2 25.1l-2.1-.9-.6-2.3 3.4 1.4-.7 1.8"/>
  <path fill="none" stroke="#ff0" stroke-miterlimit="10" stroke-width=".08256000000000001" d="M81.2 25.1l-2.1-.9-.6-2.3 3.4 1.4-.7 1.8"/>
  <path fill="#ff0" d="M79.1 24.2l-.7 2-1.3-.4 2-1.6"/>
  <path fill="none" stroke="#ff0" stroke-miterlimit="10" stroke-width=".08256000000000001" d="M79.1 24.2l-.7 2-1.3-.4 2-1.6"/>
  <path fill="#ff0" d="M56.7 77.8v1.8H55V78l1.8-.3"/>
  <path fill="none" stroke="#ff0" stroke-miterlimit="10" stroke-width=".08256000000000001" d="M56.7 77.8v1.8H55V78l1.8-.3"/>
  <path fill="#ff0" d="M63.2 72.3h1.5V77.2h-1.5V72.3"/>
  <path fill="none" stroke="#ff0" stroke-miterlimit="10" stroke-width=".08256000000000001" d="M63.2 72.3h1.5V77.2h-1.5V72.3"/>
  <path fill="#ff0" d="M64.7 76.4V73h2.5v2.8l-2.5.5"/>
  <path fill="none" stroke="#ff0" stroke-miterlimit="10" stroke-width=".08256000000000001" d="M64.7 76.4V73h2.5v2.8l-2.5.5"/>
  <path fill="#ff0" d="M72 35.4l3 1 1.8.6L76 39l-1.7-.6-3-1 .7-2"/>
  <path fill="none" stroke="#ff0" stroke-miterlimit="10" stroke-width=".08256000000000001" d="M72 35.4l3 1 1.8.6L76 39l-1.7-.6-3-1 .7-2"/>
  <path fill="#ff0" d="M79.8 29l-2-.8-2.5-1 1.8-1.4 1.3.5 2 .8-.6 1.9"/>
  <path fill="none" stroke="#ff0" stroke-miterlimit="10" stroke-width=".08256000000000001" d="M79.8 29l-2-.8-2.5-1 1.8-1.4 1.3.5 2 .8-.6 1.9"/>
  <path fill="#ff0" d="M75.3 27.3l2.5.9-.6 1.7-3.2-1.1-.4-.2 1.7-1.3"/>
  <path fill="none" stroke="#ff0" stroke-miterlimit="10" stroke-width=".08256000000000001" d="M75.3 27.3l2.5.9-.6 1.7-3.2-1.1-.4-.2 1.7-1.3"/>
  <path fill="#ff0" d="M77.1 25.8l-1.8 1.5-.7-.3.5-2 2 .8"/>
  <path fill="none" stroke="#ff0" stroke-miterlimit="10" stroke-width=".08256000000000001" d="M77.1 25.8l-1.8 1.5-.7-.3.5-2 2 .8"/>
  <path fill="#ff0" d="M68.2 25.3l-.7-.2-.7-2.3 1.9.4-.5 2"/>
  <path fill="none" stroke="#ff0" stroke-miterlimit="10" stroke-width=".08256000000000001" d="M68.2 25.3l-.7-.2-.7-2.3 1.9.4-.5 2"/>
  <path fill="#ff0" d="M68.2 27.2l2.4.6 3 .8-2.1 1.7L70 30l-1.1-.3-.8-2.5"/>
  <path fill="none" stroke="#ff0" stroke-miterlimit="10" stroke-width=".08256000000000001" d="M68.2 27.2l2.4.6 3 .8-2.1 1.7L70 30l-1.1-.3-.8-2.5"/>
  <path fill="#ff0" d="M70.6 27.8L71 26l3.6 1 .7.3-1.7 1.3-3-.8"/>
  <path fill="none" stroke="#ff0" stroke-miterlimit="10" stroke-width=".08256000000000001" d="M70.6 27.8L71 26l3.6 1 .7.3-1.7 1.3-3-.8"/>
  <path fill="#ff0" d="M71 26l-2.8-.7.5-2 2.9.7 3.5 1-.5 2-3.6-1"/>
  <path fill="none" stroke="#ff0" stroke-miterlimit="10" stroke-width=".08256000000000001" d="M71 26l-2.8-.7.5-2 2.9.7 3.5 1-.5 2-3.6-1"/>
  <path fill="#ff0" d="M75.1 25l-3.5-1 .5-2.1 3.5 1 3.5 1.3-2 1.6-2-.8"/>
  <path fill="none" stroke="#ff0" stroke-miterlimit="10" stroke-width=".08256000000000001" d="M75.1 25l-3.5-1 .5-2.1 3.5 1 3.5 1.3-2 1.6-2-.8"/>
  <path fill="#ff0" d="M68.7 23.2l-2-.4-.7-2.3 3.2.7 2.9.7-.5 2-2.9-.7"/>
  <path fill="none" stroke="#ff0" stroke-miterlimit="10" stroke-width=".08256000000000001" d="M68.7 23.2l-2-.4-.7-2.3 3.2.7 2.9.7-.5 2-2.9-.7"/>
  <path fill="#ff0" d="M73.6 28.6l.4.2-.6 2-2-.5 2.2-1.7"/>
  <path fill="none" stroke="#ff0" stroke-miterlimit="10" stroke-width=".08256000000000001" d="M73.6 28.6l.4.2-.6 2-2-.5 2.2-1.7"/>
  <path fill="#ff0" d="M69.6 31.8l-.6-2 1 .2-.4 1.8"/>
  <path fill="none" stroke="#ff0" stroke-miterlimit="10" stroke-width=".08256000000000001" d="M69.6 31.8l-.6-2 1 .2-.4 1.8"/>
  <path fill="#ff0" d="M46.1 13.7l.3 2-5 .9-.3-2.1 2.5-.5 2.5-.3"/>
  <path fill="none" stroke="#ff0" stroke-miterlimit="10" stroke-width=".08256000000000001" d="M46.1 13.7l.3 2-5 .9-.3-2.1 2.5-.5 2.5-.3"/>
  <path fill="#ff0" d="M55 15.3h-3.5l-.1-2 2.2-.1h4.9l-.1 2.1h-3.5"/>
  <path fill="none" stroke="#ff0" stroke-miterlimit="10" stroke-width=".08256000000000001" d="M55 15.3h-3.5l-.1-2 2.2-.1h4.9l-.1 2.1h-3.5"/>
  <path fill="#ff0" d="M79.3 19.7l.8-2 2.2.9 2.5 1-1 2-2.2-1-2.3-.9"/>
  <path fill="none" stroke="#ff0" stroke-miterlimit="10" stroke-width=".08256000000000001" d="M79.3 19.7l.8-2 2.2.9 2.5 1-1 2-2.2-1-2.3-.9"/>
  <path fill="#ff0" d="M68 18.7l-2 1.8-2.3-.3.3-2 4 .5"/>
  <path fill="none" stroke="#ff0" stroke-miterlimit="10" stroke-width=".08256000000000001" d="M68 18.7l-2 1.8-2.3-.3.3-2 4 .5"/>
  <path fill="#ff0" d="M42 27.1l.5 2.2-1.6.4.8-2.5h.3"/>
  <path fill="none" stroke="#ff0" stroke-miterlimit="10" stroke-width=".08256000000000001" d="M42 27.1l.5 2.2-1.6.4.8-2.5h.3"/>
  <path fill="#ff0" d="M52.4 24.7v1.1l-2.7.2-.2-2h2v.7h1"/>
  <path fill="none" stroke="#ff0" stroke-miterlimit="10" stroke-width=".08256000000000001" d="M52.4 24.7v1.1l-2.7.2-.2-2h2v.7h1"/>
  <path fill="ivory" d="M21.6 111.8H20V110h1.7v1.7"/>
  <path fill="none" stroke="ivory" stroke-miterlimit="10" stroke-width=".08256000000000001" d="M21.6 111.8H20V110h1.7v1.7"/>
  <path fill="ivory" d="M59.4 120.5l1.5.1-.2 3.4v.6l-.2.5-.3.6-.5.3-.4.1-.6.1h-1.1l-.5-.2-.4-.1-.3-.3-.3-.2-.1-.4-.1-.3v-.5h1.4V124.8l.3.2.2.2h1l.2-.3v-.2l.1-.2v-.3l.3-3.7"/>
  <path fill="none" stroke="ivory" stroke-miterlimit="10" stroke-width=".08256000000000001" d="M59.4 120.5l1.5.1-.2 3.4v.6l-.2.5-.3.6-.5.3-.4.1-.6.1h-1.1l-.5-.2-.4-.1-.3-.3-.3-.2-.1-.4-.1-.3v-.5h1.4V124.8l.3.2.2.2h1l.2-.3v-.2l.1-.2v-.3l.3-3.7"/>
  <path fill="ivory" d="M19 108v1.8h-1.7V108h1.8"/>
  <path fill="none" stroke="ivory" stroke-miterlimit="10" stroke-width=".08256000000000001" d="M19 108v1.8h-1.7V108h1.8"/>
  <path fill="#ededed" d="M92 102.3h-3.5l.7-.6.6-1 .6-1.1.5-1.1.7-.3.3-.2.5.2v2.1l-.1 1.4-.3.6"/>
  <path fill="none" stroke="#ededed" stroke-miterlimit="10" stroke-width=".08256000000000001" d="M92 102.3h-3.5l.7-.6.6-1 .6-1.1.5-1.1.7-.3.3-.2.5.2v2.1l-.1 1.4-.3.6"/>
  <path fill="#301a85" d="M92.4 98.2l-.5-.2-.3.2-.7.3-.5 1-.6 1.2-.6 1-.7.6-.2.2-.3.1-.3-.3-.6-.6-.4-1-.2-1.9V97l.5-2.2.8-2.1 1.2-2.8 1.8-2.4 1.2-.6 1.4-.2V89l-.6 1.2-.7-.7-.6-.5h-.1l-.4.8-.2.5.2.4.6.7 1 .3 2.7 1 1.2.4 1 .5-.8 1-.7.8-.2.5-.3 1-.2 1.2v2.1l-1.9-1.5-.6-.5-.4-.1"/>
  <path fill="none" stroke="#301a85" stroke-miterlimit="10" stroke-width=".08256000000000001" d="M92.4 98.2l-.5-.2-.3.2-.7.3-.5 1-.6 1.2-.6 1-.7.6-.2.2-.3.1-.3-.3-.6-.6-.4-1-.2-1.9V97l.5-2.2.8-2.1 1.2-2.8 1.8-2.4 1.2-.6 1.4-.2V89l-.6 1.2-.7-.7-.6-.5h-.1l-.4.8-.2.5.2.4.6.7 1 .3 2.7 1 1.2.4 1 .5-.8 1-.7.8-.2.5-.3 1-.2 1.2v2.1l-1.9-1.5-.6-.5-.4-.1"/>
  <path fill="#ededed" d="M77.6 121.1v-1l-.8-2.8-1.2-2.7 1.2.6 1.3.4 1.7.2 1.7.2 2 .5 1.4.6 1 .9v.7l-.4.8-1.7.8-2.4.6-1.9.3h-1.9"/>
  <path fill="none" stroke="#ededed" stroke-miterlimit="10" stroke-width=".08256000000000001" d="M77.6 121.1v-1l-.8-2.8-1.2-2.7 1.2.6 1.3.4 1.7.2 1.7.2 2 .5 1.4.6 1 .9v.7l-.4.8-1.7.8-2.4.6-1.9.3h-1.9"/>
  <path fill="#301a85" d="M92.8 90.3l.6-1.2v-2.4l2.6 1.8 1.5.8 1.7.6.7.5.5.5.3.9V94l-.6 1.4-1-1-1-.7-1.4-.8-1.2-.6-1.5-.4-.8-.3-1.4-.5-.4-.2h.6l.8-.6"/>
  <path fill="none" stroke="#301a85" stroke-miterlimit="10" stroke-width=".08256000000000001" d="M92.8 90.3l.6-1.2v-2.4l2.6 1.8 1.5.8 1.7.6.7.5.5.5.3.9V94l-.6 1.4-1-1-1-.7-1.4-.8-1.2-.6-1.5-.4-.8-.3-1.4-.5-.4-.2h.6l.8-.6"/>
  <path fill="#301a85" d="M13.8 100.8l.8-.5 1.8-1.5.7-.5.4-.1-.1 2.1.2 1.4.2.6.6 1 1.7 2.1 2.9 2.3 2.9 1.6 4.8 1.7 2.6 1 1 1.2.2.7-.2.7-1.3.6-1.2.4-1.7.2-1.7.2-2 .5-1.4.6-1 .9-1.2-.6-2.3-1-3-2-2.6-2.2-2.5-2.9-1.3-2.4-.8-1.7-.3-1.8-.1-1.6.3-.3h.7l1.4-.2 1.5-.5m6 11h1.8V110H20v1.7m-.8-2V108h-1.8v1.7h1.8m2.2-1.7h-1.8v1.7h1.8V108m-1.8 3.7V110h-1.8v1.7h1.8"/>
  <path fill="none" stroke="#301a85" stroke-miterlimit="10" stroke-width=".08256000000000001" d="M13.8 100.8l.8-.5 1.8-1.5.7-.5.4-.1-.1 2.1.2 1.4.2.6.6 1 1.7 2.1 2.9 2.3 2.9 1.6 4.8 1.7 2.6 1 1 1.2.2.7-.2.7-1.3.6-1.2.4-1.7.2-1.7.2-2 .5-1.4.6-1 .9-1.2-.6-2.3-1-3-2-2.6-2.2-2.5-2.9-1.3-2.4-.8-1.7-.3-1.8-.1-1.6.3-.3h.7l1.4-.2 1.5-.5m6 11h1.8V110H20v1.7m-.8-2V108h-1.8v1.7h1.8m2.2-1.7h-1.8v1.7h1.8V108m-1.8 3.7V110h-1.8v1.7h1.8"/>
  <path fill="#301a85" d="M17.5 98.2l-.4.1-.7.5-1.8 1.5v-2.1l-.2-1.2-.3-1-.2-.5-.7-.7-.8-1.1 1-.5 1.1-.5 2.9-.9.8-.3.7-.7.1-.4-.1-.5-.4-.8h-.2l-.5.5-.7.7-.7-1.2v-1.7l.1-.7 1.4.2 1.1.6 1.9 2.4 1.2 2.8.7 2.1.5 2.2v1.8l-.1 1.8-.4 1-.6.7-.4.3-.2-.1-.2-.2-.7-.6-.6-1-.7-1.1-.5-1.1-.6-.3-.4-.2-.4.2"/>
  <path fill="none" stroke="#301a85" stroke-miterlimit="10" stroke-width=".08256000000000001" d="M17.5 98.2l-.4.1-.7.5-1.8 1.5v-2.1l-.2-1.2-.3-1-.2-.5-.7-.7-.8-1.1 1-.5 1.1-.5 2.9-.9.8-.3.7-.7.1-.4-.1-.5-.4-.8h-.2l-.5.5-.7.7-.7-1.2v-1.7l.1-.7 1.4.2 1.1.6 1.9 2.4 1.2 2.8.7 2.1.5 2.2v1.8l-.1 1.8-.4 1-.6.7-.4.3-.2-.1-.2-.2-.7-.6-.6-1-.7-1.1-.5-1.1-.6-.3-.4-.2-.4.2"/>
  <path fill="#ededed" d="M24 118l1-1 1.4-.5 2-.5 1.7-.2 1.7-.2 1.2-.4 1.3-.6-1.2 2.7-.9 2.8v1l-1.8.1-2-.3-2.3-.6-1.7-.8-.4-.8v-.7"/>
  <path fill="none" stroke="#ededed" stroke-miterlimit="10" stroke-width=".08256000000000001" d="M24 118l1-1 1.4-.5 2-.5 1.7-.2 1.7-.2 1.2-.4 1.3-.6-1.2 2.7-.9 2.8v1l-1.8.1-2-.3-2.3-.6-1.7-.8-.4-.8v-.7"/>
  <path fill="#ededed" d="M17.8 102.3l-.2-.6-.2-1.4.1-2.1.4-.2.4.2.6.3.5 1 .7 1.2.6 1 .7.6h-3.6"/>
  <path fill="none" stroke="#ededed" stroke-miterlimit="10" stroke-width=".08256000000000001" d="M17.8 102.3l-.2-.6-.2-1.4.1-2.1.4-.2.4.2.6.3.5 1 .7 1.2.6 1 .7.6h-3.6"/>
  <path fill="#301a85" d="M92.4 98.2l.4.1.6.5 1.8 1.5.9.5 1.4.5 1.5.2h.6l.4.3v1.6l-.4 1.8-.8 1.7-1.3 2.4-2.6 3-2.5 2.1-3 2-2.3 1-1.1.6-1-1-1.5-.5-2-.5-1.7-.2-1.7-.2-1.3-.4-1.2-.6-.2-.7.2-.7 1-1.1 2.6-1.1 4.8-1.7 3-1.6 2.8-2.3 1.7-2.1.5-1 .3-.6.2-1.4-.1-2.1m-1.6 9.9v1.7h1.7V108h-1.7m-.5 0h-1.7v1.7h1.7V108m.1 2v1.7h1.8V110h-1.8m-2.1 1.7H90V110h-1.7v1.7"/>
  <path fill="none" stroke="#301a85" stroke-miterlimit="10" stroke-width=".08256000000000001" d="M92.4 98.2l.4.1.6.5 1.8 1.5.9.5 1.4.5 1.5.2h.6l.4.3v1.6l-.4 1.8-.8 1.7-1.3 2.4-2.6 3-2.5 2.1-3 2-2.3 1-1.1.6-1-1-1.5-.5-2-.5-1.7-.2-1.7-.2-1.3-.4-1.2-.6-.2-.7.2-.7 1-1.1 2.6-1.1 4.8-1.7 3-1.6 2.8-2.3 1.7-2.1.5-1 .3-.6.2-1.4-.1-2.1m-1.6 9.9v1.7h1.7V108h-1.7m-.5 0h-1.7v1.7h1.7V108m.1 2v1.7h1.8V110h-1.8m-2.1 1.7H90V110h-1.7v1.7"/>
  <path fill="#301a85" d="M16.5 86.7l-.1.8V89l.7 1.2.8.5.6.1-.4.2-1.4.5-.9.3-1.4.4-1.2.6-1.4.8-1 .8-1 .9-.6-1.4v-2.2l.3-1 .5-.4.7-.5 1.7-.6 1.5-.8 2.6-1.8"/>
  <path fill="none" stroke="#301a85" stroke-miterlimit="10" stroke-width=".08256000000000001" d="M16.5 86.7l-.1.8V89l.7 1.2.8.5.6.1-.4.2-1.4.5-.9.3-1.4.4-1.2.6-1.4.8-1 .8-1 .9-.6-1.4v-2.2l.3-1 .5-.4.7-.5 1.7-.6 1.5-.8 2.6-1.8"/>
  <path fill="#301a85" d="M35.7 120.8l13.2-1.6 5-.3h2l5 .3 13.3 1.6 3 .3h.4l1.9.1 2-.3 2.3-.6 1.7-.8.3-.8.2-.7v2l-.3 2.5-.1 1v.6l1 3.3-.4.8-1.1.7-1.2.5-1.8.3-2.4.2-3 .1-3.3-.3-4-.6-5.5-.9-3-.4-4.2-.2h-3.5l-4.3.2-3 .4-5.3.9-4 .6-3.4.3h-3l-2.4-.3-1.8-.3-1.2-.5-1.1-.7-.5-.8 1-3.3v-1.6l-.3-2.5v-2l.1.7.4.8 1.7.8 2.3.6 2 .3h1.8l.5-.1 3-.3m21 5l.4.2.5.2H59.3l.4-.2.5-.3.3-.6.1-.5.1-.6.2-3.4h-1.5l-.2 3.6v.3l-.1.2-.1.2-.2.3h-1l-.2-.2-.2-.2V124.2h-1.5v.8l.2.4.3.2.3.3m4.6.2l1.6.2.7-1.1 3 .4.5 1.3 1.6.3-2.1-6-1.7-.3-3.6 5.2m9 1.3l1.4.2 1-5.6-1.5-.2-1 5.6m-22.7-1l1.6-.2.6-1.3 3-.1.7 1.2H55l-3.3-5.6-1.7.1-2.6 5.8m-9-4.2l.9 5.6 1.5-.2-.8-5.6-1.5.2m3 .4l2.2-.3.5 4.7 1.5-.2-.5-4.7 2.2-.2-.1-1-6 .7.2 1"/>
  <path fill="none" stroke="#301a85" stroke-miterlimit="10" stroke-width=".08256000000000001" d="M35.7 120.8l13.2-1.6 5-.3h2l5 .3 13.3 1.6 3 .3h.4l1.9.1 2-.3 2.3-.6 1.7-.8.3-.8.2-.7v2l-.3 2.5-.1 1v.6l1 3.3-.4.8-1.1.7-1.2.5-1.8.3-2.4.2-3 .1-3.3-.3-4-.6-5.5-.9-3-.4-4.2-.2h-3.5l-4.3.2-3 .4-5.3.9-4 .6-3.4.3h-3l-2.4-.3-1.8-.3-1.2-.5-1.1-.7-.5-.8 1-3.3v-1.6l-.3-2.5v-2l.1.7.4.8 1.7.8 2.3.6 2 .3h1.8l.5-.1 3-.3m21 5l.4.2.5.2H59.3l.4-.2.5-.3.3-.6.1-.5.1-.6.2-3.4h-1.5l-.2 3.6v.3l-.1.2-.1.2-.2.3h-1l-.2-.2-.2-.2V124.2h-1.5v.8l.2.4.3.2.3.3m4.6.2l1.6.2.7-1.1 3 .4.5 1.3 1.6.3-2.1-6-1.7-.3-3.6 5.2m9 1.3l1.4.2 1-5.6-1.5-.2-1 5.6m-22.7-1l1.6-.2.6-1.3 3-.1.7 1.2H55l-3.3-5.6-1.7.1-2.6 5.8m-9-4.2l.9 5.6 1.5-.2-.8-5.6-1.5.2m3 .4l2.2-.3.5 4.7 1.5-.2-.5-4.7 2.2-.2-.1-1-6 .7.2 1"/>
  <path fill="ivory" d="M62.9 126.3l-1.6-.2 3.6-5.2 1.7.2 2.1 6-1.6-.2-.5-1.3-3-.4-.7 1.1m1.3-2l2 .2-.7-2.2-1.3 2"/>
  <path fill="none" stroke="ivory" stroke-miterlimit="10" stroke-width=".08256000000000001" d="M62.9 126.3l-1.6-.2 3.6-5.2 1.7.2 2.1 6-1.6-.2-.5-1.3-3-.4-.7 1.1m1.3-2l2 .2-.7-2.2-1.3 2"/>
  <path fill="ivory" d="M71.7 127.6l-1.4-.2.9-5.6 1.5.2-1 5.6"/>
  <path fill="none" stroke="ivory" stroke-miterlimit="10" stroke-width=".08256000000000001" d="M71.7 127.6l-1.4-.2.9-5.6 1.5.2-1 5.6"/>
  <path fill="ivory" d="M49.1 126.2l-1.6.1 2.6-5.8h1.7l3.3 5.4-1.7.1-.7-1.2-3 .1-.6 1.3m1-2.2l2-.2-1.1-2-1 2.2"/>
  <path fill="none" stroke="ivory" stroke-miterlimit="10" stroke-width=".08256000000000001" d="M49.1 126.2l-1.6.1 2.6-5.8h1.7l3.3 5.4-1.7.1-.7-1.2-3 .1-.6 1.3m1-2.2l2-.2-1.1-2-1 2.2"/>
  <path fill="ivory" d="M39.4 127.7l-.8-5.6 1.5-.2.8 5.6-1.5.2"/>
  <path fill="none" stroke="ivory" stroke-miterlimit="10" stroke-width=".08256000000000001" d="M39.4 127.7l-.8-5.6 1.5-.2.8 5.6-1.5.2"/>
  <path fill="ivory" d="M43.8 122.2l-2.2.3-.1-1 5.9-.7.1 1-2.2.2.5 4.7-1.5.2-.5-4.7"/>
  <path fill="none" stroke="ivory" stroke-miterlimit="10" stroke-width=".08256000000000001" d="M43.8 122.2l-2.2.3-.1-1 5.9-.7.1 1-2.2.2.5 4.7-1.5.2-.5-4.7"/>
  <path fill="ivory" d="M19.5 108h1.8v1.8h-1.8V108"/>
  <path fill="none" stroke="ivory" stroke-miterlimit="10" stroke-width=".08256000000000001" d="M19.5 108h1.8v1.8h-1.8V108"/>
  <path fill="ivory" d="M19.5 110v1.8h-1.8V110h1.8"/>
  <path fill="none" stroke="ivory" stroke-miterlimit="10" stroke-width=".08256000000000001" d="M19.5 110v1.8h-1.8V110h1.8"/>
  <path fill="ivory" d="M90.8 109.8V108h1.7v1.7h-1.7"/>
  <path fill="none" stroke="ivory" stroke-miterlimit="10" stroke-width=".08256000000000001" d="M90.8 109.8V108h1.7v1.7h-1.7"/>
  <path fill="ivory" d="M88.6 108h1.7v1.8h-1.7V108"/>
  <path fill="none" stroke="ivory" stroke-miterlimit="10" stroke-width=".08256000000000001" d="M88.6 108h1.7v1.8h-1.7V108"/>
  <path fill="ivory" d="M90.4 111.8V110h1.8v1.7h-1.8"/>
  <path fill="none" stroke="ivory" stroke-miterlimit="10" stroke-width=".08256000000000001" d="M90.4 111.8V110h1.8v1.7h-1.8"/>
  <path fill="ivory" d="M90 111.8h-1.7V110H90v1.7"/>
  <path fill="none" stroke="ivory" stroke-miterlimit="10" stroke-width=".08256000000000001" d="M90 111.8h-1.7V110H90v1.7"/>
  <path fill="#ff2c22" d="M54.3 43.9h1.3v2h1.8V47h-1.8v2.8h3v-1.6h1.5v1.6h1.3v1.5h-1.3V53h-1.5v-1.7h-3v3h1.7v1.2h-1.7v1.7h-1.3v-1.7h-1.7v-1.2h1.7v-3h-3V53h-1.5v-1.7h-1.3v-1.5h1.3v-1.6h1.4v1.6h3V47h-1.7V46h1.8v-2"/>
  <path fill="none" stroke="#ff2c22" stroke-miterlimit="10" stroke-width=".08256000000000001" d="M54.3 43.9h1.3v2h1.8V47h-1.8v2.8h3v-1.6h1.5v1.6h1.3v1.5h-1.3V53h-1.5v-1.7h-3v3h1.7v1.2h-1.7v1.7h-1.3v-1.7h-1.7v-1.2h1.7v-3h-3V53h-1.5v-1.7h-1.3v-1.5h1.3v-1.6h1.4v1.6h3V47h-1.7V46h1.8v-2"/>
  <path fill="#301a85" d="M66.2 124.5l-2-.2 1.3-2 .7 2.2"/>
  <path fill="none" stroke="#301a85" stroke-miterlimit="10" stroke-width=".08256000000000001" d="M66.2 124.5l-2-.2 1.3-2 .7 2.2"/>
  <path fill="#301a85" d="M52.1 123.8l-2 .2.9-2.2 1.1 2"/>
  <path fill="none" stroke="#301a85" stroke-miterlimit="10" stroke-width=".08256000000000001" d="M52.1 123.8l-2 .2.9-2.2 1.1 2"/>
  <path fill="none" stroke="#000" stroke-linecap="round" stroke-linejoin="round" stroke-miterlimit="10" stroke-width=".08256000000000001" d="M52.8 99.2l.2-1M53.1 96.3v-8M53 98.1l.1-1.8M50.2 102l.9-.4M46.2 101.9l1.4.3M51.8 100.9l.7-.8M49.2 102.3l1-.2M52.5 100l.3-.8M51 101.6l.8-.7M53.1 88.4h1.8M47.6 102.2h1.6M37.7 103.8V93.4M42.5 103.9l-1.9-2.1M45.5 105.5l-1.6-.6M40.6 101.8l-3 2M43.9 99.8l1 1.2M44 104.9l-1.5-1M49.5 106l-1.7-.2M44.9 101l1.3.9M37.7 93.4l8.7 4.7M51.1 106.5l-1.6-.5M46.4 98l-2.5 1.8M47.8 105.8l-2.3-.3M24.5 22.4l1 2.1M22.1 23.6l-3.3 2M23 25.9l-3 1.7M25.4 24.5L23 26M40.7 98.1l-3 5.7M40.7 98.1l-3-4.7M21.6 111.8H20M21.6 110v1.8M19.9 110h1.7M19.9 111.8V110M41.6 25.3l-2.8.7M41.6 25.3l-.4-2M38.3 24l2.9-.8M34.7 25l3.6-1M35.3 27l-.6-2M35.3 27l3.5-1M50 73v4.2M46.7 73h3.4M46.7 73v3.6M50 77.2l-3.3-.6M59.4 120.5l1.5.1M59.4 120.5l-.2 3.7v.3l-.1.2-.1.2-.2.3h-1l-.2-.2-.2-.2V124.2h-1.5v.8l.2.4.3.2.3.3.4.1.5.2H59.3l.4-.2.5-.3.3-.6.1-.5.1-.6.2-3.4M44.2 22.6l-.4-2M44.2 22.6l2.3-.3 2.8-.3M49 19.9l.3 2M46.2 20.2l2.9-.3M43.8 20.5l2.4-.3M50.8 37h4.1M50.8 37l-2.4.3-1.8.3-1.4.2-3.2.7h-.2l-3 .8-2.7.8-.4.2-3 1.1-3 1.3h50.5M77.2 41.4l3 1.3M74.1 40.3l3.1 1.1M73.7 40.1l.4.2M71 39.3l2.7.8M68 38.5l3 .8M67.9 38.5h.2M64.7 37.8l3.2.7M63.3 37.6l1.4.2M61.4 37.3l1.9.3M59.1 37l2.3.3M59.1 37H55M26 21.6l2.3-1 2.3-.9M55 64.3l-1 .1-.7.3-.7.6-.5.7-.4.8V68.5l.4.8.5.6.6.5M53.2 68.6v1.8M53.2 68.6h1.7M56.7 68.6H55M56.7 68.6v1.8M57.3 70l-.6.4M57.8 69.3l-.5.6M58.1 68.5l-.3.8M58.2 67.6v.9M58.1 66.8l.1.8M57.8 66l.3.8M57.3 65.3l.5.7M56.6 64.7l.7.6M55.8 64.4l.8.3M55 64.3l.8.1M19 108v1.8M17.3 108h1.8M17.3 109.8V108M19 109.8h-1.7M25.4 24.5l2.6-1.2 3.4-1.4"/>
  <path fill="none" stroke="#000" stroke-linecap="round" stroke-linejoin="round" stroke-miterlimit="10" stroke-width=".08256000000000001" d="M55 62.9l-1.3.1-1.1.5-1 .8-.7 1-.5 1-.2 1.3.2 1.2.5 1.2.7 1 1 .7.6.2M53.2 70.4v1.5M56.7 70.4v1.5M57.3 71.7l-.6.2M58.3 71l-1 .7M59 70l-.7 1M59.5 68.8L59 70M59.7 67.6l-.2 1.2M59.5 66.4l.2 1.2M59 65.2l.5 1.2M58.3 64.3l.7 1M57.3 63.5l1 .8M56.2 63l1.1.5M55 62.9l1.2.1M52.6 35.3l2.3-.1M50.6 35.4l2-.1M50.6 35.4l.2 1.6M59.3 35.4L59 37M59.3 35.4l-2-.1-2.4-.1M42 27.1l.5 2.2M41.7 27.2h.3M40.9 29.7l.8-2.5M42.5 29.3l-1.6.4M52.4 24.7v1.1M51.5 24.7h1M51.5 24v.7M49.5 24h2M49.5 24l.2 2M52.4 25.8l-2.7.2M32.2 121.1l-1.8.1-2-.3-2.3-.6-1.7-.8-.4-.8v-.7M85.8 118.7l.2-.7M85.5 119.5l.3-.8M83.8 120.3l1.7-.8M81.4 121l2.4-.7M79.5 121.2l2-.3M77.6 121.1l1.9.1M62.9 126.3l-1.6-.2 3.6-5.2 1.7.2 2.1 6-1.6-.2-.5-1.3-3-.4-.7 1.1M71.7 127.6l-1.4-.2.9-5.6 1.5.2-1 5.6M49.1 126.2l-1.6.1 2.6-5.8h1.7l3.3 5.4-1.7.1-.7-1.2-3 .1-.6 1.3M39.4 127.7l-.8-5.6 1.5-.2.8 5.6-1.5.2M43.8 122.2l-2.2.3-.1-1 5.9-.7.1 1-2.2.2.5 4.7-1.5.2-.5-4.7M53.3 31.1h3.3M50.2 31.3l3-.2M50.2 31.3l.2 2 2.1-.2H55M57.4 33.1h-2.5M59.5 33.2l-2.1-.1M59.7 31.3l-.2 2M59.7 31.3l-3.1-.2M55 21.9H54.3l-.3.2-.3.1-.2.3-.1.2-.1.3V30h1.5M56.5 30H55M56.5 23.3V30M56.5 23v.3M56.4 22.7l.1.3M56.2 22.5l.2.2M56 22.2l.2.3M55.8 22l.2.2M55.5 22h.3M55.2 21.9h.3M55 21.9h.2M37.4 33.6l3-.8M34.3 34.6l3-1M34.9 36.4l-.6-1.8M34.9 36.4l3-1 3-.7-.4-1.9M31.1 37.7l2-.7M31.1 37.7l-1.6.8M30.5 40.5l-1-2M30.5 40.5l1.5-.7 1.9-.7M33 37L34 39M49.9 28.3l.2 2 2.3-.2M52.4 28.1v2M52.4 28.1l-2.5.2M49.7 26l-2.5.3.3 2.2 2.4-.2M52.4 25.8v2.3M46.9 24.4l2.6-.3M51.5 23.2v.7M52.4 23.2h-.9M52.6 22.5l-.2.7M52.8 22.1l-.2.4M53 21.8l-.2.3M49.3 22l3.7-.2M46.9 24.4l-.4-2.1M52.6 35.3V33M57.3 35.3V33M30.4 36l3.9-1.4M30.4 36l.7 1.7M33 37l1.9-.6M44.5 24.7l-2.1.4M44.5 24.7l2.4-.3M43.1 22.8l1-.2M42.4 25.1l.7-2.3M41 34.7l2.6-.6"/>
  <path fill="none" stroke="#000" stroke-linecap="round" stroke-linejoin="round" stroke-miterlimit="10" stroke-width=".08256000000000001" d="M37.9 35.4l.6 2.2 3-.8 2.6-.5M43.6 34.1l.5 2.2M39.2 27.8l-2.9.8M38.8 26l.4 1.8M34.6 27.3l.7-.3M36.3 28.6l-1.7-1.3M44.8 26.6l-2.8.5M44.8 26.6l-.3-1.9M41.7 27.2l.7-2M45.2 28.9l.3 1.9 2.4-.4 2.2-.2M45.2 28.9l2.3-.4M42.5 29.3l2.7-.4M47.2 26.3l-2.4.3M32.1 28.2l2.5-1-1.9-1.4M31.5 26.3l1.2-.5M29.4 27.1l2-.8M30 29l-.6-1.9M32.1 28.2l-2 .8M42.4 25.1l-.8.2M39.2 27.8l2.5-.6M41.2 23.2l1.9-.4M38.3 24l-.5-2.1M43.1 22.8l.7-2.3M32.7 25.8l2-.8M17.5 98.2l-.4.1-.7.5-1.8 1.5M24 118l1-1 1.4-.5 2-.5 1.7-.2 1.7-.2 1.2-.4 1.3-.6M17.8 102.3l-.2-.6-.2-1.4.1-2.1M19.5 108h1.8v1.8h-1.8V108M19.5 110v1.8h-1.8V110h1.8M36.3 28.6l-.4.2.6 2M38.4 30.3l-1.9.6M36.3 28.6l2.1 1.7M40.2 31.8l.7-2M40.2 31.8l2.8-.6 2.5-.4M40.9 29.7l-1.1.3M40.2 31.8l-.4-1.8-1.4.3M68.2 27.2h-.4M68.2 27.2l-.7-2M65.4 24.7l2.1.4M65 26.6l.4-1.9M65 26.6l2.8.5M64.7 28.9l-.3 1.9M64.7 28.9l-2.3-.4-2.4-.2-.2 2M62 30.4l-2.2-.2M64.4 30.8l-2.5-.4M67.8 27.1l-.5 2.2M62.7 26.3l2.3.3M62.7 26.3l-.3 2.2M67.3 29.3l-2.6-.4M77.8 28.2l-2.5-1M77.8 28.2l2 .8.7-1.9-2-.8-1.4-.5M75.3 27.3l1.8-1.5M67.5 25.1l.7.2M70.6 27.8l-2.4-.6M71 26l-.4 1.8M68.2 25.3l2.8.7M68.7 23.2l-2-.4M67.5 25.1l-.7-2.3M68.2 25.3l.5-2M66.8 22.8l-.8-2.3M71.6 24l-2.9-.8M71.6 24l.5-2.1M75.3 27.3l-.7-.3M77.1 25.8l-2-.8M74.6 27l.5-2M92.4 98.2l.4.1M92.5 100.3l-.1-2.1M92.3 101.7l.2-1.4M92 102.3l.3-.6M76.8 115.2l-1.2-.6M78.1 115.6l-1.3-.4M79.8 115.8l-1.7-.2M81.5 116l-1.7-.2M83.5 116.5l-2-.5M85 117l-1.5-.5M86 118l-1-1M93.4 98.8l1.8 1.5M92.8 98.3l.6.5M90.8 108v1.8M92.5 108h-1.7M92.5 109.8V108M90.8 109.8h1.7M90.3 108h-1.7M90.3 109.8V108M88.6 109.8h1.7M88.6 108v1.8M90.4 110v1.8M92.2 110h-1.8M92.2 111.8V110M90.4 111.8h1.8M88.3 111.8H90M88.3 110v1.8M90 110h-1.7M90 111.8V110M73.6 28.6l.4.2M73.6 28.6l-2.1 1.7 1.9.6M74 28.8l-.6 2M69.6 31.8l-.6-2M67.3 29.3l1.7.4M67 31.2l-2.6-.4M69.6 31.8l-2.7-.6M69.6 31.8l.5-1.8M69 29.7l1 .3 1.5.3M70.6 27.8l3 .8M69 29.7l-.8-2.5M77.1 25.8l2-1.6M75.1 25l-3.5-1M79.3 40.5l-1.5-.7-.6 1.6M79.3 40.5l1.7.7M83 30.5l-.3.6M83 30.5l-1-.5-.6 1.6 1.7.9M83.6 31.6l-.5.9M82.7 31.1l.9.5M87.8 23.6l3.3 2M86.1 27.5l-2.4-1.3M82.8 28.2l.9-2M82.8 28.2l2 1M85.2 29l-.3.3M85.5 28.9l-.3.2M86 28.7l-.5.2M86.5 28.6H86M86.9 28.6h-.4M87.2 28l-.3.6M86.1 27.5l1 .6M86.8 29.6l.4.1M86.6 29.5h.2M86.2 29.6h.4M85.9 29.7l.3-.1M85.5 30l.4-.3M85.3 30.2l.2-.3M82 36.2l3.3-6M82 36.2l1.3.7M56.7 72v1M55 73v-4.4M56.7 73H55M76.5 32l-.6 1.7M76.5 32l-3.1-1.1M71.5 30.3l-1.9 1.5M72.6 32.6l-3-.8M76 33.7l-3.4-1.1M60.2 26l2.5.3M65.4 24.7l-2.4-.3-2.6-.3-.2 2M58.5 78v-.5M59.8 78h-1.3M59.8 77.2v.9M59.8 73v4.2M59.8 72.3v.8M58.5 72.3h1.3M58.5 73v-.7M58.5 77.5V73M81.2 25.1l-2.1-.9M78.4 26.3l.7-2M82.8 28.2l-2.3-1M83.7 26.2l-2.5-1.1M56.7 77.8v1.8M56.7 77.8L55 78M55 79.6V78M56.7 79.6H55M64.7 72.3h-1.5V77.2h1.5V72.3M82 23.3l-.8 1.8M82 23.3L78.4 22M67.2 76l-2.5.4M67.2 73v3M64.7 73h2.5M81.3 35.8l.8.4M87.8 28.4l-.6-.3M84.9 29.3l-.3.3-.3.6-.8-.4-.4.7M83 32.5l-1 1.8-.7 1.5M75 36.4l-3-1-.7 2.2M74.3 38.5l-3-1M76 39.1l-1.7-.6M76.8 37L76 39M76.8 37l-1.8-.6M64 18.1l4 .6M64 18.1l-.3 2M66 20.5l-2.3-.3M73.6 28.6l1.7-1.3M74 28.8l3.2 1 .6-1.6M87 25.9l-.9 1.6M87 25.9l2.9 1.7M56 108.6l-1 1.3M57.3 107.3l-1.2 1.3M57.3 107.3l1.5-.8 1.6-.5 1.7-.2 2.3-.3 1.6-.6 1.3-1 2-2.1 2.9 2M69.2 98.1l3 5.7M69.2 98.1l-1.3 2.3-.8 1-1.1 1.1-1 .6-1.1.6-1.6.4h-1l-1.5.2-1 .3-1.1.5-1 .5-1.8 1.2M53.1 105.6l1.8 1.2M52.2 105l.9.6M51 104.6l1.2.5M50 104.3l1 .3M48.7 104.1l1.4.2M47.6 104l1 .1M46 103.7l1.6.4M44.8 103.1l1.2.6M43.9 102.5l.9.6M42.7 101.4l1.2 1.1M42 100.4l.7 1M40.7 98.1l1.3 2.3M52.6 107.3l-1.5-.8M52.6 107.3l1.2 1.3 1.1 1.3M83.4 93.2h.6M82 93l1.4.2M80.5 92.2l1.5.8M79 91.1l1.5 1.1M77.8 90.2l1.2.9M76 89.3l1.8.9M74.3 88.7l1.7.6M72.5 88.7h1.8M71.1 89.2l1.4-.5M69.8 90.1l1.3-.9M67.5 92l2.3-1.9M65.8 93l1.7-1M64.6 93h1.2M63.2 92.6l1.4.4M61.6 91.9l1.6.7M59 89.9l2.6 2M57.6 88.7l1.5 1.2M56.8 88.4l.8.3M56.8 96.3v-8M56.9 98.1l-.1-1.8M57 99.2l-.1-1M57.4 100l-.4-.8M58 100.9l-.6-.8M58.8 101.6l-.8-.7M59.7 102l-1-.4M60.7 102.3l-1-.2M62.2 102.2h-1.5M63.7 101.9l-1.5.3M65 101l-1.3.9M66 99.8l-1 1.2M63.5 98l2.5 1.8M72.2 93.4L63.5 98M72.2 103.8V93.4M53.1 88.4l-.9.3-1.4 1.2-2.6 2-1.5.7-1.4.4H44l-1.6-1L40 90l-1.4-.9-1.4-.5h-1.7l-1.7.6-1.8.9-1.2.9-1.6 1.1-1.4.8-1.4.2h-.6M84.4 24.5L82 23.3M84.4 24.5L87 26M79.4 36l-.7 1.7 1.7.8 1.7.7M81.4 37l1.5.7M79.4 36l2 1M63.5 98l5.7.1 3-4.7M66.8 22.8l-1.1-.2.3-2M55 98v-9.6M55.3 99.6L55 98M55.8 100.8l-.5-1.2M56.4 102l-.6-1.2M57.4 102.9l-1-1M58.6 103.5l-1.2-.6M59.9 104l-1.3-.5M61.2 104.1L60 104M56.8 88.4h-1.9M63.7 20.2l-2.9-.3M61 17.8l3 .3M57.9 17.6l3.1.2M57.8 19.7l.1-2.1M60.8 19.9l-3-.2M79.8 35.2L76 33.7M80.5 33.6l-.7 1.6M78.4 32.7l2.1.9M78.4 32.7l-1.9-.8M79.8 29l2.3 1M80.5 33.6l1.6.7M81.3 35.8l-1.5-.6M79.2 30.7l-2-.8M81.4 31.6l-2.2-1-.8 2M63.5 15.8l4.9.8M61.2 15.5l-.2 2.3M92 98l.4.2M91.6 98.2l.3-.2M91 98.5l.6-.3M90.4 99.6l.5-1.1M89.8 100.7l.6-1.1M89.2 101.7l.6-1M88.5 102.3l.7-.6M79.3 40.5l1.1-2M66.8 32.3l-2.6-.5-.3 2M66.3 34.1l-2.4-.4M69 34.7l-2.7-.6M69 34.7l.4-1.9-2.6-.5M61.9 31.5l-2.2-.2M61.6 33.4l-2.1-.2M63.9 33.7l-2.3-.3M64.2 31.8l-2.3-.3M93.4 89.1l-.6 1.2M93.5 88.4v.7M93.5 87.5v.9M93.4 86.7v.8M74.3 38.5l-.6 1.6M71.3 37.6l-2.9-.8-.3 1.7M63.5 35.9l-.2 1.7M63.5 35.9l-2.2-.3-2-.2M68.4 36.8l-2.6-.5-2.3-.4M77.8 39.8l-1.8-.7M61.6 33.4l-.3 2.2M66.3 34.1l-.5 2.2M32.7 25.8l-2-1.6M30.5 40.5l-1.6.7M32 39.8l.7 1.6M26.8 30.5l.3.6-.8.5.5.9M28.5 31.6l-1.7.9M27.8 30l.7 1.6M26.8 30.5l1-.5M23.8 27.5l2.4-1.3M23.8 27.5l-1.1.6.3.5h.9l.5.3.3.2.3.2M27 28.2l-2 1M27 28.2l-.8-2M27.8 36.2l-1.3.7M27.8 36.2l-3.2-6-.3-.3-.3-.2-.3-.1H23l-.4.1M53.2 72v1h1.7M33.4 32l.6 1.7 3.3-1.1 3-.8M38.4 30.3l1.8 1.5M33.4 32l3.1-1.1M51.4 78v-5.7h-1.3v.8M50 77.2v.9h1.4M28.6 25.1l2.2-.9M26.2 26.2l2.4-1.1M27 28.2l2.4-1M31.5 26.3l-.7-2M53.2 77.8v1.8h1.7M53.2 77.8l1.7.3M45.2 72.3h1.5M45.2 73v-.7M45.2 76.4V73M45.2 77.2v-.8M46.7 77.2h-1.5M46.7 76.6v.6M46.7 72.3v.8M53.2 73h-1.8M51.4 77.5l1.8.3M58.5 77.5l-1.8.3M56.7 73h1.8M28 23.3l.6 1.8M45.2 73h-2.5v3l2.5.4M28.6 35.8l-.8.4M27.8 34.3l.8 1.5M26.8 32.5l1 1.8M26.4 29.8l.4.7M25.6 30.2l.8-.4M25.3 29.6l.3.6M25 29.3l.3.3M22 28.4l.7-.3"/>
  <path fill="none" stroke="#000" stroke-linecap="round" stroke-linejoin="round" stroke-miterlimit="10" stroke-width=".08256000000000001" d="M33.9 39.1l1.7-.6 3-1M45.9 18.1l.3 2M45.9 18.1l-4 .6M32.7 29.9l-.6-1.7M35.9 28.8l-3.2 1M23 25.9l.8 1.6M25.1 58.8h59.6M25.1 84.4h1.1l1.7-.2 1.2-.7 2-1.4 1.7-1.1 2-.8 1.7-.3 1.8.4 1.4.7 1.2 1 2 1.4 1.1.6 1.3.2 1-.3 1.8-.7 2.2-1.7 1.6-1.3.8-.4.5-.2M63.2 73h-3.4M59.8 77.2l3.4-.6M57.2 79.8l-.5-.2M58 80.2l-.8-.4M59.5 81.5L58 80.2M61.8 83.2l-2.3-1.7M63.5 83.9l-1.7-.7M64.5 84.2l-1-.3M65.8 84l-1.3.2M67 83.4l-1.2.6M69 82l-2 1.4M70.2 81l-1.3 1M71.6 80.3l-1.4.7M73.4 79.9l-1.8.4M75.1 80.2l-1.7-.3M77 81l-1.9-.8M78.7 82.1L77.1 81M80.8 83.5l-2-1.4M82 84.2l-1.2-.7M83.6 84.4l-1.6-.2M84.7 84.4h-1M30.4 36l-1.9 1-1.5.7M29.5 38.5l-1.7.7M46.4 98l-5.7.1M54.3 43.9h1.3M54.3 43.9v2h-1.8V47h1.8v2.8h-3v-1.6M49.8 48.2h1.4"/>
  <path fill="none" stroke="#000" stroke-linecap="round" stroke-linejoin="round" stroke-miterlimit="10" stroke-width=".08256000000000001" d="M49.8 48.2v1.6h-1.3v1.5h1.3V53h1.4v-1.7h3v3h-1.6M52.6 55.5v-1.2M52.6 55.5h1.7v1.7h1.3M55.6 55.5v1.7M57.3 55.5h-1.7M57.3 55.5v-1.2M55.6 54.3h1.7M55.6 51.3v3M58.6 51.3h-3M58.6 53v-1.7M60 53h-1.4M60 51.3V53M61.4 51.3h-1.3M61.4 49.8v1.5M60 49.8h1.4M60 48.2v1.6M60 48.2h-1.4M58.6 49.8v-1.6M55.6 49.8h3M55.6 47v2.8M57.4 47h-1.8M57.4 45.9V47M55.6 45.9h1.8M55.6 43.9v2M54.6 99.6l.3-1.6M54.1 100.8l.5-1.2M53.5 102l.6-1.2M52.5 102.9l1-1M51.3 103.5l1.2-.6M50 104l1.3-.5M48.7 104.1l1.3-.1M49 19.9l3-.2v-2.1l-3.1.2-3 .3M54 20.3h2M54 21.1v-.8M53.5 21.3l.4-.2M53.3 21.5l.2-.2M53 21.8l.3-.3M52.4 30h1M57.5 30h-1M57.5 28.1v2M57.5 25.8v2.3M57.5 24.7v1.1M58.4 24.7h-1M58.4 24v.7M58.4 23.2v.7M57.5 23.2h.9M57.3 22.5l.2.7M57.1 22.1l.2.4M56.9 21.8l.2.3M56.9 21.8l-.3-.3-.3-.2-.4-.2v-.8M30 35.2l4-1.5M31.5 32.7l1.9-.8M31.5 32.7l-2.1.9.7 1.6M30 29l-2.2 1M28.6 35.8l1.5-.6M29.4 33.6l-1.6.7M28.5 31.6l2.2-1 2-.7M30.7 30.7l.8 2M52 17.6h3M52 19.7l3-.1M57.8 19.7l-2.9-.1M57.9 17.6h-3M60.6 22l-3.7-.2M60.8 19.9l-.2 2M46.4 15.8l-5 .8M48.6 15.5l.3 2.3M51.5 15.3h3.4M58.4 15.3h-3.5M21.4 102.3l-.7-.6-.6-1-.7-1.1-.5-1.1-.6-.3-.4-.2-.4.2M40.5 32.8l2.6-.5 2.6-.5 2.3-.3 2.2-.2M72.5 33.6l-3.1-.8M75.6 34.6l-3-1M79.4 36l-3.8-1.4M59.8 30.2l-2.3-.1M43.6 34.1l2.4-.4"/>
  <path fill="none" stroke="#000" stroke-linecap="round" stroke-linejoin="round" stroke-miterlimit="10" stroke-width=".08256000000000001" d="M45.7 31.8l.3 2 2.3-.4 2-.2M16.5 86.7l-.1.8V89l.7 1.2M41.4 36.8l.4 1.7M35.6 38.5l.5 1.6M48.6 35.6l2-.2M46.3 35.9l2.3-.3M46.3 35.9l.3 1.7M44 36.3l2.3-.4M48.3 33.4l.3 2.2M66.2 124.5l-2-.2 1.3-2 .7 2.2M85.4 22.4l-1 2.1M74.6 27L71 26M63.3 22.3l-2.7-.3M65.7 22.6l-2.4-.3M81.6 20.6l-2.3-.9M83.8 21.6l-2.2-1M57.5 25.8l2.7.2M60.4 24h-2M72 35.4l-3-.7M75 36.4l.6-1.8M78.7 37.7l-1.9-.7M57.5 28.1l2.5.2M63 24.4l.3-2.1M52.1 123.8l-2 .2.9-2.2 1.1 2"/>
  <path fill="none" stroke="#000" stroke-linecap="round" stroke-linejoin="round" stroke-miterlimit="10" stroke-width=".4128" d="M22.1 23.6l2.4-1.2M20 27.6l-1.2-2M29.8 17.7l.8 2M27.5 18.6l2.3-1M25.1 19.6l2.4-1M26 21.6l-.9-2M24.5 22.4l1.5-.8M30.6 19.7l.8 2.2M56 118.9h-2l-5 .3M35.7 120.8l-3 .3h-.5"/>
  <path fill="none" stroke="#000" stroke-linecap="round" stroke-linejoin="round" stroke-miterlimit="10" stroke-width=".4128" d="M24 118v2l.2 2.5v1.6l-1 3.3.5.8 1 .7 1.3.5 1.8.3 2.4.2 3 .1 3.3-.3 4-.6 5.5-.9 3-.4 4.2-.2h3.5M61 127.8l-4.3-.2M63.9 128.2l-3-.4M69.3 129l-5.4-.8M73.4 129.7l-4-.6M76.7 130l-3.3-.3M79.7 130h-3M82 129.7l-2.3.2M84 129.4l-2 .3M85.1 128.9l-1.2.5M86.2 128.2l-1.1.7M86.7 127.4l-.5.8M85.7 124.1l1 3.3M85.6 123.5v.6M85.7 122.5l-.1 1M86 120l-.3 2.5M86 118v2M77.2 121l.4.1M74.2 120.8l3 .3M56 118.9l5 .3M40.7 21.2l3.1-.7M37.8 21.9l3-.7M14.6 100.3l-.8.5-1.5.5-1.4.2h-.7l-.3.3v1.6l.4 1.8.8 1.7 1.3 2.4 2.5 3 2.6 2.1 3 2 2.3 1 1.1.6M34.3 114.6l.2-.7-.2-.7-1-1.1-2.6-1.1-4.8-1.7-3-1.6-2.8-2.3-1.7-2.1-.6-1M69.2 21.2l-3.2-.7M72 21.9l-2.8-.7M91.5 103.3l.5-1M89.8 105.4l1.7-2.1M87 107.7l2.8-2.3M84 109.3l3-1.6M79.2 111l4.8-1.7M76.6 112l2.6-1M75.6 113.2l1-1.1M75.4 114l.2-.8M75.6 114.6l-.2-.7M87 117.4l-1 .6M89.4 116.3l-2.3 1.1M92.4 114.4l-3 2M95 112.2l-2.6 2.2M97.5 109.3l-2.6 3M98.8 107l-1.3 2.3M99.6 105.2l-.8 1.7M100 103.4l-.4 1.8M100 101.8v1.6M99.6 101.5l.4.3M99 101.5h.6M97.5 101.3l1.5.2M96 100.8l1.5.5M95.2 100.3l.9.5M79.1 24.2L75.6 23l-3.5-1M80.2 42.7l.8-1.5M88.8 21.7l-1 2M91.1 25.6l1.2-2-1.7-1-1.8-1M83.3 36.9l3.9-7.2M78.5 21.9l.6 2.3M87.2 29.7l.6-1.3M66 20.5l2-1.8M87.8 28.4l2.1-.8M58.2 115.5l-3.3.2M61.5 115l-3.3.5M64.6 114l-3.1 1M67.7 112.8l-3 1.2M70.6 111.2l-3 1.6M73.3 109.4l-2.7 1.8M75.8 107.2l-2.5 2.2M78 104.8l-2.2 2.4M80 102.2l-2 2.6M81.6 99.4l-1.6 2.8M83 96.4l-1.4 3M84 93.2l-1 3.2M25.9 93.2l1 3.2 1.3 3 1.7 2.8 2 2.6 2.2 2.4 2.5 2.2 2.7 1.8 3 1.6 3 1.2 3.1 1 3.3.5 3.2.2M82 39.2l.9-1.5M63.7 13.7l-.2 2M68.4 16.6l.4-2.1-2.5-.5-2.6-.3M63.5 15.8l-2.3-.3M68 18.7l.4-2.1M92 102.3h-3.5M77.6 120v1.1M75.6 114.6l1.2 2.7.8 2.8M81 41.2l1-2M95.2 100.3v-2.1M95.5 97l-.2 1.2M95.8 96l-.3 1M96 95.5l-.2.5M96.7 94.8l-.7.7M97.5 93.7l-.8 1M96.5 93.2l1 .5M95.3 92.7l1.2.5M92.5 91.8l2.8 1M91.6 91.5l1 .3M91 90.8l.6.7M90.8 90.4l.2.4M91 90l-.2.4M91.4 89.1l-.4.8M91.5 89.1h-.1M92.1 89.6l-.6-.5M92.8 90.3l-.7-.7M92 86.9l1.4-.2M90.8 87.5l1.2-.6M89 90l1.8-2.5M87.8 92.7l1.2-2.8M87 94.8l.8-2.1M86.5 97l.5-2.2M86.5 98.8V97M86.7 100.6l-.2-1.8M87 101.7l-.3-1M87.7 102.3l-.6-.6M88 102.6l-.3-.3M88.3 102.5l-.3.1M88.5 102.3l-.2.2M92 90.8l.8-.5M91.4 91l.6-.2M91.8 91h-.4M93.2 91.6l-1.4-.5M94 91.9l-.8-.3M95.5 92.3l-1.5-.4M96.7 92.9l-1.2-.6M98.1 93.7l-1.4-.8M99.1 94.5l-1-.8M100 95.4l-.9-1M100.7 94l-.6 1.4M100.7 92.9v1M100.7 91.8v1M100.4 90.9l.3.9M100 90.4l.4.5M99.2 89.9l.7.5M97.5 89.3l1.7.6M96 88.5l1.5.8M93.4 86.7l2.6 1.8M34.3 23l3.5-1.1M30.8 24.2l3.5-1.3M29.7 42.7l-.8-1.5M21 21.7l1.1 2M19.3 22.6l1.7-1M17.6 23.6l1.7-1M18.8 25.6l-1.2-2M26.5 36.9l-3.8-7.2M31.4 21.9l-.6 2.3M22.7 29.7l-.7-1.3M43.8 20.5L42 18.7M22 28.4l-2-.8M25.1 84.4V58.8M84.7 84.4V58.8M27.8 39.2l-.8-1.5M25.1 42.7h4.6M25.1 58.8V42.7M84.7 58.8V42.7h-4.5M46.1 13.7l.3 2M43.6 14l2.5-.3M41 14.5l2.6-.5M41.5 16.6l-.4-2.1M46.4 15.8l2.2-.3M42 18.7l-.5-2.1M48.6 15.5l2.9-.2M61.2 15.5l-2.8-.2M53.6 13.2h2.7M51.4 13.2h2.2M51.5 15.3l-.1-2M58.4 15.3v-2l-2.1-.1M17.8 102.3h3.6M26.5 36.9l-.2.1v.5l.2.2h.5M83.1 37.8l-.2-.1M83.4 37.7h-.3M83.6 37.5l-.2.2M83.7 37.3l-.1.2M83.6 37v.3M83.3 36.9l.3.1M32.2 120v1.1M33 117.3l-.8 2.8M34.3 114.6l-1.2 2.7M28.9 41.2l-1.1-2M14.6 100.3v-2.1M21.4 102.3l.2.2.2.1.4-.3.6-.6.4-1 .1-1.9V97l-.5-2.2-.7-2.1-1.2-2.8-1.9-2.4-1.1-.6-1.4-.2"/>
  <path fill="none" stroke="#000" stroke-linecap="round" stroke-linejoin="round" stroke-miterlimit="10" stroke-width=".4128" d="M17 90.3l.8-.7.5-.5h.2l.4.8.1.5v.4l-.8.7-.8.3-2.9 1-1 .4-1.1.5.8 1 .7.8.2.5.3 1 .2 1.2M17.9 90.8l-.8-.5"/>
  <path fill="none" stroke="#000" stroke-linecap="round" stroke-linejoin="round" stroke-miterlimit="10" stroke-width=".4128" d="M16.5 86.7L14 88.5l-1.5.8-1.7.6-.7.5-.5.5-.3.9V94l.6 1.4 1-1 1-.7 1.4-.8 1.2-.6 1.4-.4.9-.3 1.4-.5.4-.2h-.6M89.9 27.6l1.2-2M87.8 23.6l-2.4-1.2M84 93.2l.7-2.5v-6.3M25.1 90.7v-6.3M25.9 93.2l-.8-2.5M80 17.7l-.7 2M83.8 21.6l1-2-2.5-1-2.2-1M85.4 22.4l-1.6-.8M79.3 19.7l-.8 2.2M49 119.2l-13.3 1.6M74.2 120.8l-13.3-1.6M29.7 42.7"/>
  <path d="M132 44.7V23.9h4.2l4.9 14.7 1 3 1-3.2 5-14.5h3.8v20.8h-2.7V27.3l-6 17.4h-2.5l-6-17.7v17.7zM170 23.9h2.7v12c0 2.1-.2 3.8-.7 5a6 6 0 0 1-2.5 3 9 9 0 0 1-4.9 1.1c-2 0-3.5-.3-4.8-1a5.7 5.7 0 0 1-2.6-2.9c-.6-1.3-.8-3-.8-5.2V24h2.7v12c0 1.8.2 3.1.5 4 .4.8 1 1.5 1.8 2a6 6 0 0 0 3 .7c2 0 3.4-.5 4.3-1.4.8-1 1.3-2.7 1.3-5.3zM177.3 44.7V23.9h2.8l11 16.3V24h2.6v20.8h-2.8l-11-16.4v16.4zM198.8 44.7V23.9h2.7v20.8zM221.2 37.4l2.7.7c-.5 2.3-1.6 4-3 5.2a8.6 8.6 0 0 1-5.6 1.7c-2.2 0-4-.4-5.4-1.3a8.5 8.5 0 0 1-3.2-4 14.1 14.1 0 0 1 .1-11.2c.8-1.6 2-2.9 3.5-3.7 1.6-.8 3.3-1.3 5-1.3 2.2 0 4 .6 5.3 1.6 1.4 1 2.4 2.6 3 4.5l-2.7.6a6.4 6.4 0 0 0-2.1-3.3c-1-.7-2-1-3.5-1-1.6 0-3 .4-4 1.1a6 6 0 0 0-2.2 3.1 12.7 12.7 0 0 0 .1 8.6 5.8 5.8 0 0 0 2.4 3c1 .7 2.2 1 3.5 1a6 6 0 0 0 4-1.3c1-1 1.7-2.3 2.1-4zM227.8 44.7V23.9h2.8v20.8zm-.7-22.1l2-4h3.3l-3.2 4zM235.4 44.7V23.9h7.9c1.3 0 2.4 0 3.1.2 1 .2 1.9.5 2.6 1 .7.4 1.2 1.1 1.6 2 .5.8.7 1.8.7 2.8 0 1.8-.6 3.3-1.7 4.5-1.1 1.2-3.2 1.8-6.1 1.8h-5.3v8.5zm2.8-11h5.3c1.8 0 3-.3 3.8-1 .8-.6 1.1-1.5 1.1-2.7 0-.9-.2-1.6-.6-2.2a3 3 0 0 0-1.8-1.3l-2.5-.2h-5.3zM255.3 44.7V23.9h2.7v20.8zM262 34.6c0-3.5 1-6.2 2.8-8.1 1.9-2 4.3-3 7.2-3 1.9 0 3.6.5 5.2 1.4a9 9 0 0 1 3.5 3.8c.8 1.7 1.2 3.5 1.2 5.6 0 2.1-.4 4-1.3 5.7-.8 1.6-2 2.9-3.6 3.8a10.3 10.3 0 0 1-10.3-.2 9.1 9.1 0 0 1-3.5-3.9c-.8-1.6-1.2-3.3-1.2-5.1zm2.9 0c0 2.5.6 4.5 2 6 1.3 1.4 3 2 5 2 2.1 0 3.8-.6 5.2-2.1 1.3-1.5 2-3.5 2-6.2 0-1.7-.3-3.2-.9-4.4a6.6 6.6 0 0 0-6.2-4 7 7 0 0 0-5 2c-1.4 1.3-2.1 3.6-2.1 6.7zM293.5 44.7V23.9h7.2c1.6 0 2.8 0 3.7.3a7 7 0 0 1 3 1.5c1.1 1 2 2 2.5 3.5s.8 3.1.8 5c0 1.6-.2 3-.6 4.2-.3 1.2-.8 2.2-1.4 3-.6.8-1.2 1.4-1.9 1.9-.7.4-1.5.8-2.5 1-1 .3-2 .4-3.3.4zm2.7-2.5h4.5c1.4 0 2.4-.1 3.2-.4.8-.2 1.4-.6 1.9-1 .6-.7 1.1-1.6 1.5-2.7.4-1 .5-2.4.5-4 0-2.1-.3-3.8-1-5-.7-1.1-1.6-2-2.6-2.3-.8-.3-2-.5-3.6-.5h-4.4zM314.5 44.7V23.9h15v2.4h-12.2v6.4h11.5v2.5h-11.5v7H330v2.5z" font-family="Sans" font-size="32" font-weight="400" letter-spacing="0" word-spacing="0" style="line-height:125%"/>
  <path d="M135.8 129.5V67.2h12.6v62.3zM174.4 129.5V77.7H156V67.2h49.6v10.5H187v51.8zM269.9 129.5h-13.7l-5.5-14.1h-24.9l-5.1 14.1h-13.4l24.3-62.3h13.3zm-23.2-24.7l-8.6-23.1-8.4 23.1zM299.1 67.2h12.6v39.4c0 5.2-.5 9.2-1.4 12a16.9 16.9 0 0 1-6.6 8.7 22 22 0 0 1-12.7 3.3c-6.2 0-11-1.7-14.2-5.2-3.3-3.4-5-8.5-5-15.1l11.8-1.4c.2 3.6.7 6 1.6 7.6a6.8 6.8 0 0 0 6.2 3.3c2.8 0 4.8-.8 6-2.4 1.1-1.6 1.7-5 1.7-10zM381.3 129.5h-13.7l-5.4-14.1h-25l-5 14.1h-13.4L343 67.2h13.3zm-23.1-24.7l-8.6-23.1-8.5 23.1zM387.7 129.5V67.2h12.6v62.3zm-1.4-66l5.9-12.7h13.4l-11.7 12.7z" font-family="Sans" font-size="96" font-weight="700" letter-spacing="0" word-spacing="0" style="line-height:125%;-inkscape-font-specification:'Sans Bold';text-align:start"/>
  <text x="467.6" y="1077.5" stroke-width=".5" font-family="sans-serif" font-size="21.5" font-weight="400" letter-spacing="0" transform="translate(0 -977.5)" word-spacing="0" style="line-height:13.4183073px;-inkscape-font-specification:'sans-serif, Normal';font-variant-ligatures:normal;font-variant-caps:normal;font-variant-numeric:normal;font-feature-settings:normal;text-align:start">
    <tspan style="line-height:28.43320084px;-inkscape-font-specification:'sans-serif, Normal';font-variant-ligatures:normal;font-variant-caps:normal;font-variant-numeric:normal;font-feature-settings:normal;text-align:start" x="467.6" y="1077.5">SERVIO DE INFORMAES</tspan><tspan style="line-height:28.43320084px;-inkscape-font-specification:'sans-serif, Normal';font-variant-ligatures:normal;font-variant-caps:normal;font-variant-numeric:normal;font-feature-settings:normal;text-align:start" x="467.6" y="1105.9">GEOGRFICAS</tspan>
  </text>
</svg>
